<svg width="608" height="320" viewBox="0 0 608 320" fill="none" xmlns="http://www.w3.org/2000/svg">
<path d="M167 202.25H136V242H104.5V202.25H8.5V179.75L94.75 67H129.5L48.25 174.75H105.5V139.5H136V174.75H167V202.25ZM556.795 202.25H525.795V242H494.295V202.25H398.295V179.75L484.545 67H519.295L438.045 174.75H495.295V139.5H525.795V174.75H556.795V202.25Z" fill="#C39367"/>
<path d="M308.743 274.266L286.941 252.395L265.137 274.266L286.937 320L308.743 274.266Z" fill="#E04E39"/>
<path d="M286.936 126.588C278.569 126.588 271.785 133.402 271.785 141.807C271.785 150.212 278.569 157.026 286.936 157.026C295.302 157.026 302.086 150.212 302.086 141.807C302.086 133.402 295.302 126.588 286.936 126.588Z" fill="#C39367"/>
<path d="M286.93 58.2861C282.315 60.6602 222 92.6773 222 143.835C222 187.594 257.501 253.962 257.501 253.962L286.93 224.346L316.361 253.962C316.361 253.962 351.862 187.594 351.862 143.835C351.862 92.6773 291.547 60.6602 286.93 58.2861ZM306.362 204.365L286.93 184.812L267.5 204.365C266.508 201.652 253.49 166.255 253.49 143.161C253.49 112.007 284.594 94.5527 286.93 93.2747C289.269 94.5527 320.372 112.007 320.372 143.161C320.372 166.255 307.355 201.652 306.362 204.365Z" fill="#C39367"/>
<path d="M351.859 36L329.668 58.2915L351.859 80.583L374.05 58.2915L351.859 36Z" fill="#C39367"/>
</svg>
