<svg width="20" height="17" viewBox="0 0 20 17" fill="none" xmlns="http://www.w3.org/2000/svg">
<path d="M18.7534 15.8519C18.7534 15.6809 18.7534 15.5262 18.7534 15.3714C18.7534 14.1256 18.7534 12.8716 18.7534 11.6257C18.7534 11.186 19.139 10.9091 19.5695 11.0394C19.8386 11.1209 20 11.3244 20 11.6176C20 12.8472 20 14.0767 20 15.2982C20 15.6564 20 16.0147 20 16.373C20 16.7802 19.7489 17 19.3004 17C17.6951 17 16.0897 17 14.4843 17C9.91031 17 5.33632 17 0.762332 17C0.224215 17 0 16.7964 0 16.3079C0 14.7526 0 13.1973 0 11.6502C0 11.2593 0.233184 11.0069 0.600897 10.9987C0.977579 10.9906 1.23767 11.2511 1.23767 11.642C1.23767 12.9612 1.23767 14.2722 1.23767 15.5913C1.23767 15.6727 1.23767 15.7542 1.23767 15.8437C7.0852 15.8519 12.8969 15.8519 18.7534 15.8519Z" fill="white"/>
<path d="M10.637 9.96451C11.2558 9.30493 11.8388 8.69422 12.4128 8.0835C12.7715 7.70079 13.1303 7.31808 13.489 6.93536C13.7671 6.64222 14.1258 6.6015 14.4128 6.82136C14.6908 7.03307 14.6998 7.3995 14.4397 7.67636C13.1303 9.06065 11.8209 10.4449 10.5115 11.8292C10.1886 12.1712 9.79396 12.1712 9.46213 11.8292C8.17065 10.4612 6.88813 9.10136 5.59665 7.73336C5.45316 7.57865 5.31863 7.42393 5.3545 7.21222C5.39038 6.96793 5.52491 6.79693 5.78499 6.7155C6.05405 6.63407 6.28724 6.69922 6.46661 6.89465C7.36347 7.83922 8.25136 8.79193 9.14822 9.73651C9.20204 9.79351 9.26482 9.85051 9.36347 9.95636C9.36347 9.77722 9.36347 9.67136 9.36347 9.55736C9.36347 6.57707 9.36347 3.60493 9.36347 0.624638C9.36347 0.144208 9.82984 -0.140793 10.2693 0.0709212C10.5204 0.193064 10.6011 0.396636 10.6011 0.649065C10.6011 2.13107 10.6011 3.60493 10.6011 5.08693C10.6011 6.62593 10.6011 8.16493 10.6011 9.70394C10.6191 9.77722 10.628 9.84236 10.637 9.96451Z" fill="white"/>
</svg>
