<svg width="15" height="28" viewBox="0 0 15 28" fill="none" xmlns="http://www.w3.org/2000/svg">
<path d="M9 23.2647L6.50013 21L4 23.2647L6.49961 28L9 23.2647Z" fill="#E04E39"/>
<path d="M6.5 9C5.67163 9 5 9.67164 5 10.5C5 11.3284 5.67163 12 6.5 12C7.32836 12 8 11.3284 8 10.5C8 9.67164 7.32836 9 6.5 9Z" fill="#E04E39"/>
<path d="M6.49989 2C6.03791 2.23052 0 5.33936 0 10.3067C0 14.5557 3.5539 21 3.5539 21L6.49989 18.1243L9.4461 21C9.4461 21 13 14.5557 13 10.3067C13 5.33936 6.96209 2.23052 6.49989 2ZM8.44516 16.1842L6.49989 14.2855L4.55485 16.1842C4.45547 15.9207 3.15236 12.4837 3.15236 10.2413C3.15236 7.21622 6.26599 5.52146 6.49989 5.39737C6.73401 5.52146 9.84764 7.21622 9.84764 10.2413C9.84764 12.4837 8.54453 15.9207 8.44516 16.1842Z" fill="#E04E39"/>
<path d="M12.7364 1.32421e-05L10.5452 2.20117L12.7364 4.40233L14.9276 2.20117L12.7364 1.32421e-05Z" fill="#E04E39"/>
</svg>
