<svg width="21" height="39" viewBox="0 0 21 39" fill="none" xmlns="http://www.w3.org/2000/svg">
<path d="M11.7925 32.7788L8.82827 29.8052L5.86377 32.7788L8.82766 38.9967L11.7925 32.7788Z" fill="#E04E39"/>
<path d="M8.82765 12.7004C7.69012 12.7004 6.76782 13.6269 6.76782 14.7696C6.76782 15.9123 7.69012 16.8388 8.82765 16.8388C9.96518 16.8388 10.8875 15.9123 10.8875 14.7696C10.8875 13.6269 9.96518 12.7004 8.82765 12.7004Z" fill="#E04E39"/>
<path d="M8.82784 3.41455C8.20041 3.73732 0 8.09034 0 15.0457C0 20.9952 4.82674 30.0185 4.82674 30.0185L8.82784 25.9919L12.8293 30.0185C12.8293 30.0185 17.656 20.9952 17.656 15.0457C17.656 8.09034 9.45558 3.73732 8.82784 3.41455ZM11.4698 23.2754L8.82784 20.6168L6.18618 23.2754C6.05121 22.9065 4.28138 18.0939 4.28138 14.9541C4.28138 10.7183 8.51017 8.34532 8.82784 8.17157C9.14581 8.34532 13.3746 10.7183 13.3746 14.9541C13.3746 18.0939 11.6048 22.9065 11.4698 23.2754Z" fill="#E04E39"/>
<path d="M17.6557 0.384549L14.6387 3.41528L17.6557 6.44601L20.6728 3.41528L17.6557 0.384549Z" fill="#E04E39"/>
</svg>
