<svg width="8" height="12" viewBox="0 0 8 12" fill="none" xmlns="http://www.w3.org/2000/svg">
<path d="M4 0.61554C1.79437 0.61554 0 2.45638 0 4.71912C0 8.09044 3.60185 11.3822 3.75524 11.5208C3.82516 11.5839 3.91256 11.6155 4 11.6155C4.08744 11.6155 4.17484 11.5839 4.2448 11.5208C4.39811 11.3823 8 8.09048 8 4.71912C8 2.45638 6.20563 0.61554 4 0.61554ZM4 3.56712C4.61268 3.56712 5.11112 4.0839 5.11112 4.71912C5.11112 5.35434 4.61268 5.87111 4 5.87111C3.38732 5.87111 2.88888 5.35434 2.88888 4.71912C2.88888 4.0839 3.38732 3.56712 4 3.56712Z" fill="#E04E39"/>
</svg>
