<svg width="21" height="20" viewBox="0 0 21 20" fill="none" xmlns="http://www.w3.org/2000/svg">
<path d="M19.691 18.3323C19.691 18.1345 19.691 17.9556 19.691 17.7766C19.691 16.3358 19.691 14.8856 19.691 13.4448C19.691 12.9363 20.096 12.6161 20.548 12.7668C20.8305 12.861 21 13.0964 21 13.4354C21 14.8574 21 16.2793 21 17.6919C21 18.1062 21 18.5206 21 18.9349C21 19.4058 20.7363 19.6601 20.2655 19.6601C18.5798 19.6601 16.8942 19.6601 15.2085 19.6601C10.4058 19.6601 5.60314 19.6601 0.800448 19.6601C0.235426 19.6601 0 19.4246 0 18.8596C0 17.061 0 15.2623 0 13.4731C0 13.021 0.244843 12.7291 0.630942 12.7197C1.02646 12.7103 1.29955 13.0116 1.29955 13.4636C1.29955 14.9892 1.29955 16.5053 1.29955 18.0309C1.29955 18.1251 1.29955 18.2192 1.29955 18.3228C7.43946 18.3323 13.5417 18.3323 19.691 18.3323Z" fill="white"/>
<path d="M11.169 11.5237C11.8188 10.7609 12.4309 10.0547 13.0336 9.34839C13.4103 8.90579 13.7869 8.46319 14.1636 8.02059C14.4556 7.68157 14.8322 7.63449 15.1336 7.88875C15.4255 8.13359 15.4349 8.55735 15.1618 8.87753C13.7869 10.4784 12.4121 12.0793 11.0372 13.6802C10.6982 14.0757 10.2838 14.0757 9.93538 13.6802C8.57932 12.0982 7.23269 10.5255 5.87663 8.94345C5.72596 8.76453 5.5847 8.58561 5.62237 8.34076C5.66004 8.05825 5.8013 7.8605 6.07439 7.76632C6.3569 7.67215 6.60175 7.74749 6.79009 7.9735C7.73179 9.06588 8.66408 10.1677 9.60578 11.26C9.66228 11.326 9.7282 11.3919 9.83179 11.5143C9.83179 11.3071 9.83179 11.1847 9.83179 11.0529C9.83179 7.60623 9.83179 4.16902 9.83179 0.722379C9.83179 0.166774 10.3215 -0.162824 10.7829 0.0820187C11.0466 0.223274 11.1313 0.458701 11.1313 0.750629C11.1313 2.46453 11.1313 4.16901 11.1313 5.88292C11.1313 7.66274 11.1313 9.44256 11.1313 11.2224C11.1502 11.3071 11.1596 11.3825 11.169 11.5237Z" fill="white"/>
</svg>
