<svg width="123" height="57" viewBox="0 0 123 57" fill="none" xmlns="http://www.w3.org/2000/svg">
<path d="M109.952 47.5994L105.596 43.23L101.24 47.5994L105.595 56.7358L109.952 47.5994Z" fill="white"/>
<path d="M105.595 18.0972C103.924 18.0972 102.569 19.4585 102.569 21.1375C102.569 22.8166 103.924 24.1779 105.595 24.1779C107.267 24.1779 108.622 22.8166 108.622 21.1375C108.622 19.4585 107.267 18.0972 105.595 18.0972Z" fill="white"/>
<path d="M105.596 4.45215C104.674 4.92642 92.6243 11.3226 92.6243 21.5426C92.6243 30.2846 99.7165 43.5431 99.7165 43.5431L105.596 37.6266L111.475 43.5431C111.475 43.5431 118.567 30.2846 118.567 21.5426C118.567 11.3226 106.518 4.92642 105.596 4.45215ZM109.478 33.635L105.596 29.7286L101.714 33.635C101.516 33.093 98.9152 26.0215 98.9152 21.408C98.9152 15.1841 105.129 11.6973 105.596 11.442C106.063 11.6973 112.276 15.1841 112.276 21.408C112.276 26.0215 109.676 33.093 109.478 33.635Z" fill="white"/>
<path d="M118.567 1.17654e-06L114.134 4.45337L118.567 8.90673L123 4.45337L118.567 1.17654e-06Z" fill="white"/>
<path d="M76.8701 8.90527C76.8701 9.83677 76.4502 10.3779 75.723 10.3779C74.9958 10.3779 74.5777 9.80446 74.5777 8.90527H70.8101C70.9155 11.6782 72.5114 13.5493 75.7811 13.5493C78.7974 13.5493 80.5194 11.6266 80.6355 8.90527H76.8701Z" fill="white"/>
<path d="M68.902 27.597L68.9038 14.5664H73.2566C73.2566 14.5664 73.2548 20.189 73.2548 20.6337C73.2548 21.0775 73.1619 21.5818 73.1619 21.5818H73.3495L78.0873 14.5664H82.2512V27.597H77.8984V21.4741C77.8984 21.0366 77.9935 20.6216 77.9935 20.6216H77.8046L73.0667 27.597H68.902Z" fill="white"/>
<path d="M59.9225 14.2339C64.0538 14.2339 67.1336 17.1675 67.1336 21.1008C67.1336 24.995 64.0538 27.9304 59.9225 27.9304C55.8328 27.9304 52.7512 24.995 52.7512 21.1008C52.7512 17.1675 55.8328 14.2339 59.9225 14.2339ZM59.9225 23.8795C61.5011 23.8795 62.5525 22.6461 62.5525 21.1008C62.5525 19.516 61.5011 18.2834 59.9225 18.2834C58.3846 18.2834 57.2934 19.516 57.2934 21.1008C57.2934 22.6461 58.3846 23.8795 59.9225 23.8795Z" fill="white"/>
<path d="M47.5363 14.5635C47.5363 14.5635 43.9009 19.3102 43.7544 19.4897C43.5752 19.7123 43.5601 19.8321 43.5601 19.8321H43.3711C43.3711 19.8321 43.3354 19.7033 43.1643 19.4897C42.9084 19.1712 39.142 14.5635 39.142 14.5635H35.7094V27.5937H39.9045V22.1236C39.9045 21.5335 39.8098 21.1746 39.8098 21.1746H39.9992L43.372 25.067H43.5538L46.6796 21.1746H46.8677C46.8677 21.1746 46.7739 21.5286 46.7739 22.1236V27.5937H50.9703V14.5635H47.5363Z" fill="white"/>
<path d="M7.87629 30.3483C5.68224 30.3483 3.38545 31.5727 2.54839 33.3998L2.42868 33.3985C2.47513 33.2082 2.55375 33.0207 2.5667 32.8403C2.77038 30.0333 3.88528 27.7988 6.04851 27.0256C7.40863 26.5397 8.75758 26.3436 9.78626 26.1238C10.8864 25.8886 12.0152 25.614 12.6785 25.4157L11.9464 23.2095C10.7408 23.5433 9.61876 23.7856 7.73157 24.1719C6.93381 24.3353 6.0628 24.4757 5.0426 24.9073C1.57911 26.3719 0.0604248 29.2974 0.0604248 34.8128C0.0604248 39.7673 2.52159 43.6773 7.24112 43.6773C11.5788 43.6773 14.2146 40.2752 14.2146 36.8571C14.2146 32.913 11.6994 30.3483 7.87629 30.3483ZM7.24738 41.4764C4.3458 41.4764 2.68328 38.7968 2.68328 35.7398C3.36892 33.9598 5.50134 32.5231 7.29874 32.5231C9.92562 32.5231 11.6006 34.1644 11.6006 36.9728C11.6006 39.5802 9.70675 41.4764 7.24738 41.4764Z" fill="white"/>
<path d="M18.6049 39.5392C18.6049 39.5392 18.5563 39.5379 18.4857 39.5379C18.542 39.331 18.6049 39.0255 18.6049 38.723V30.2036H16.0178V43.2338H18.3387L25.7495 33.8672H25.8701C25.8107 34.0714 25.7486 34.416 25.7486 34.7153V43.2338H28.3379V30.2036H26.0166L18.6049 39.5392Z" fill="white"/>
<path d="M38.1839 36.5544V36.4965C39.7142 35.9455 40.4646 34.9306 40.4646 33.423C40.4646 31.2477 38.7034 29.8486 35.5856 29.8486C33.794 29.8486 31.9068 30.3485 30.352 31.5434L31.3717 33.392C32.5353 32.474 34.0223 32.0181 35.2395 32.0181C36.9426 32.0181 37.8592 32.7266 37.8592 33.8865C37.8592 34.9306 37.0579 35.666 35.7589 35.666H33.7096V37.691H35.9032C37.4911 37.691 38.2849 38.2366 38.2849 39.3094C38.2849 40.5855 37.0069 41.4551 35.0697 41.4551C33.7047 41.4551 32.1052 40.8651 31.0658 40.0237L30.0433 41.9006C31.1712 42.9273 33.1169 43.6775 35.3837 43.6775C38.4997 43.6775 40.8836 42.0353 40.8836 39.6284C40.8836 38.0333 39.9161 36.7572 38.1839 36.5544Z" fill="white"/>
<path d="M52.2348 35.5494H45.2739V30.2036H42.6868V43.2342H45.2739V37.5744H52.2348V43.2342H54.8242V30.2036H52.2348V35.5494Z" fill="white"/>
<path d="M62.9326 29.8491C59.1176 29.8491 56.627 32.8608 56.627 36.8318C56.627 40.7516 59.1319 43.6775 63.6772 43.6775C65.8708 43.6775 67.7384 43.0013 69.0828 41.9007L68.0604 40.0242C67.0643 40.7745 65.5456 41.474 63.7523 41.474C60.9132 41.474 59.541 39.9237 59.2922 37.6461H59.3012H69.2151C69.2419 37.3792 69.2579 37.109 69.2579 36.8318C69.2579 32.8608 67.3484 29.8491 62.9326 29.8491ZM59.3302 35.6189C59.6594 33.6011 61.1285 32.0347 63.0595 32.0347C65.4 32.0347 66.5368 33.6146 66.7418 35.6189H59.3302Z" fill="white"/>
<path d="M78.1667 41.4216C75.5256 41.4216 73.5808 39.4271 73.5808 36.5968C73.5808 34.1787 75.1321 32.0748 78.018 32.0748C79.3299 32.0748 80.652 32.4234 82.1707 33.4052C82.1707 33.4052 82.8296 32.2125 83.2231 31.4906C81.6691 30.3832 79.8739 29.834 77.9492 29.834C73.7706 29.834 70.9673 32.7806 70.9673 36.7516C70.9673 40.6202 73.7621 43.6772 77.9921 43.6772C80.066 43.6772 81.875 43.0786 83.2199 41.978L82.1975 40.1011C81.201 40.8517 79.7596 41.4216 78.1667 41.4216Z" fill="white"/>
</svg>
