<svg width="127" height="75" viewBox="0 0 127 75" fill="none" xmlns="http://www.w3.org/2000/svg">
<path d="M57.255 81.6677H2.58496V21.1136L20.1387 2.43909H57.255V81.6677Z" stroke="#E1E9F1" stroke-width="3.5" stroke-miterlimit="10"/>
<path d="M2.58496 20.6948H19.8492V2.43909" stroke="#E1E9F1" stroke-width="3.5" stroke-miterlimit="10"/>
<path d="M23.1982 12.3004H51.1395" stroke="#E1E9F1" stroke-width="3.5" stroke-miterlimit="10"/>
<path d="M23.1982 16.9448H51.1395" stroke="#E1E9F1" stroke-width="3.5" stroke-miterlimit="10"/>
<path d="M23.1982 21.5898H51.1395" stroke="#E1E9F1" stroke-width="3.5" stroke-miterlimit="10"/>
<path d="M9.2251 26.843H51.137" stroke="#E1E9F1" stroke-width="3.5" stroke-miterlimit="10"/>
<path d="M9.2251 31.4879H45.708" stroke="#E1E9F1" stroke-width="3.5" stroke-miterlimit="10"/>
<path d="M9.2251 36.1337H41.3467" stroke="#E1E9F1" stroke-width="3.5" stroke-miterlimit="10"/>
<path d="M9.53613 41.3486H31.8312" stroke="#E1E9F1" stroke-width="3.5" stroke-miterlimit="10"/>
<path d="M6.89355 69.8083C6.89355 69.8083 7.7984 73.6156 9.22804 72.4924C10.6577 71.3693 11.0377 68.6852 12.1597 69.8083C13.8347 71.468 16.0306 72.4231 18.3307 72.4924" stroke="#E1E9F1" stroke-width="3.5" stroke-miterlimit="10"/>
<path d="M24.2836 69.5418C23.6321 66.1723 25.478 62.289 28.6087 58.12L57.4729 27.7573C58.3176 26.8662 59.4643 26.3646 60.6606 26.3628C61.253 26.3619 61.8397 26.4838 62.3872 26.7214C62.9348 26.959 63.4326 27.3078 63.852 27.7478C64.2715 28.1877 64.6044 28.7103 64.8319 29.2857C65.0593 29.861 65.1768 30.4778 65.1777 31.1009C65.1785 31.724 65.0627 32.3412 64.8368 32.9172C64.6109 33.4933 64.2793 34.0168 63.861 34.4581L34.5987 65.2396C31.6923 67.8079 28.0735 69.3173 24.2836 69.5418Z" fill="#F3F6F9" stroke="#E1E9F1" stroke-width="3.5" stroke-miterlimit="10"/>
<path d="M51.1372 41.3494L61.5066 30.2323" stroke="#E1E9F1" stroke-width="3.5" stroke-miterlimit="10"/>
<path d="M24.2849 69.5416L22.0952 71.864" stroke="#E1E9F1" stroke-width="3.5" stroke-miterlimit="10"/>
<path d="M65.6714 28.2901C66.9607 28.2901 68.0058 27.1907 68.0058 25.8345C68.0058 24.4782 66.9607 23.3788 65.6714 23.3788C64.3821 23.3788 63.3369 24.4782 63.3369 25.8345C63.3369 27.1907 64.3821 28.2901 65.6714 28.2901Z" stroke="#E1E9F1" stroke-width="3.5" stroke-miterlimit="10"/>
<path d="M124.916 117.926H70.2461V57.372L87.7999 38.6975H124.916V117.926Z" stroke="#E1E9F1" stroke-width="3.5" stroke-miterlimit="10"/>
<path d="M70.2461 56.9532H87.5103V38.6975" stroke="#E1E9F1" stroke-width="3.5" stroke-miterlimit="10"/>
<path d="M101.105 47.6061H119.256" stroke="#E1E9F1" stroke-width="3.5" stroke-miterlimit="10"/>
<path d="M101.105 52.2507H119.256" stroke="#E1E9F1" stroke-width="3.5" stroke-miterlimit="10"/>
<path d="M101.105 56.8959H119.256" stroke="#E1E9F1" stroke-width="3.5" stroke-miterlimit="10"/>
<path d="M76.9297 62.7971H95.0807" stroke="#E1E9F1" stroke-width="3.5" stroke-miterlimit="10"/>
<path d="M76.9297 67.4425H95.0807" stroke="#E1E9F1" stroke-width="3.5" stroke-miterlimit="10"/>
<path d="M76.9297 72.0861H95.0807" stroke="#E1E9F1" stroke-width="3.5" stroke-miterlimit="10"/>
<path d="M76.9297 76.7318H95.0807" stroke="#E1E9F1" stroke-width="3.5" stroke-miterlimit="10"/>
<path d="M110.352 88.0007C115.089 88.0007 118.93 83.9608 118.93 78.9775C118.93 73.9941 115.089 69.9543 110.352 69.9543C105.614 69.9543 101.774 73.9941 101.774 78.9775C101.774 83.9608 105.614 88.0007 110.352 88.0007Z" stroke="#E1E9F1" stroke-width="3.5" stroke-miterlimit="10"/>
<path d="M110.171 78.3111H122.242C122.084 75.104 120.764 72.0826 118.552 69.8692C116.34 67.6558 113.405 66.4189 110.352 66.4135H110.171V78.3111Z" stroke="#E1E9F1" stroke-width="3.5" stroke-miterlimit="10"/>
</svg>
