<svg width="22" height="21" viewBox="0 0 22 21" fill="none" xmlns="http://www.w3.org/2000/svg">
<path d="M18.4826 20.0129H1.19243C0.521686 20.0129 0 19.4912 0 18.8205V3.98967C0 3.31893 0.521686 2.79724 1.19243 2.79724H18.4826C19.1534 2.79724 19.6751 3.31893 19.6751 3.98967V8.01411H18.5572V3.98967C18.5572 3.91514 18.4826 3.91514 18.4826 3.91514H1.19243C1.1179 3.91514 1.1179 3.98967 1.1179 3.98967V18.8205C1.1179 18.895 1.19243 18.895 1.19243 18.895H18.4826C18.5572 18.895 18.5572 18.8205 18.5572 18.8205V14.647H19.6751V18.746C19.6751 19.4912 19.1534 20.0129 18.4826 20.0129Z" fill="white"/>
<path d="M2.16133 3.84053L1.93774 2.72263L15.3526 0.0396651C16.4705 -0.183915 17.5884 0.56135 17.8119 1.67925L18.11 3.16979L16.9921 3.39337L16.694 1.90283C16.6195 1.38115 16.0978 1.00851 15.5761 1.15757L2.16133 3.84053Z" fill="white"/>
<path d="M20.197 15.2431H12.6698C11.4773 15.2431 10.583 14.2742 10.583 13.1563V9.57906C10.583 8.38663 11.5519 7.49231 12.6698 7.49231H20.197C20.7186 7.49231 21.0913 7.86494 21.0913 8.38663V14.4233C21.0913 14.7959 20.7186 15.2431 20.197 15.2431ZM12.6698 8.53569C12.1481 8.53569 11.7009 8.98284 11.7009 9.50453V13.0818C11.7009 13.6035 12.1481 14.0507 12.6698 14.0507H19.9734V8.46115H12.6698V8.53569Z" fill="white"/>
<path d="M14.3838 12.5603C13.7131 12.5603 13.1914 12.0386 13.1914 11.3678C13.1914 10.6971 13.7131 10.1754 14.3838 10.1754C15.0546 10.1754 15.5763 10.6971 15.5763 11.3678C15.5763 12.0386 15.0546 12.5603 14.3838 12.5603ZM14.3838 11.2933C14.3093 11.2933 14.3093 11.3678 14.3838 11.2933C14.3093 11.4424 14.4584 11.4424 14.3838 11.2933C14.4584 11.3678 14.3838 11.2933 14.3838 11.2933Z" fill="white"/>
</svg>
