<svg width="29" height="22" viewBox="0 0 29 22" fill="none" xmlns="http://www.w3.org/2000/svg">
<path d="M24.2491 18.3249H1.68441C0.880823 18.3249 0.225098 17.6692 0.225098 16.8656V2.58749C0.225098 1.7839 0.880823 1.12817 1.68441 1.12817H24.2491C25.0527 1.12817 25.7084 1.7839 25.7084 2.58749V16.8656C25.7084 17.6692 25.0527 18.3249 24.2491 18.3249ZM1.67798 1.89962C1.29869 1.89962 0.990112 2.2082 0.990112 2.58749V16.8656C0.990112 17.2449 1.29869 17.5535 1.67798 17.5535H24.2427C24.622 17.5535 24.9306 17.2449 24.9306 16.8656V2.58749C24.9306 2.2082 24.622 1.89962 24.2427 1.89962H1.67798Z" fill="white"/>
<path d="M24.249 18.55H1.68432C0.758585 18.55 0 17.7914 0 16.8657V2.58752C0 1.66179 0.758585 0.903198 1.68432 0.903198H24.249C25.1748 0.903198 25.9334 1.66179 25.9334 2.58752V16.8657C25.9334 17.7914 25.1748 18.55 24.249 18.55ZM1.67789 1.35321C0.996448 1.35321 0.44358 1.90608 0.44358 2.58752V16.8657C0.44358 17.5471 0.996448 18.1 1.67789 18.1H24.2426C24.924 18.1 25.4769 17.5471 25.4769 16.8657V2.58752C25.4769 1.90608 24.924 1.35321 24.2426 1.35321H1.67789ZM24.249 17.7785H1.68432C1.18288 17.7785 0.771443 17.3671 0.771443 16.8657V2.58752C0.771443 2.08608 1.18288 1.67464 1.68432 1.67464H24.249C24.7505 1.67464 25.1619 2.08608 25.1619 2.58752V16.8657C25.1619 17.3671 24.7505 17.7785 24.249 17.7785ZM1.67789 2.12465C1.42074 2.12465 1.21502 2.33037 1.21502 2.58752V16.8657C1.21502 17.1228 1.42074 17.3285 1.67789 17.3285H24.2426C24.4998 17.3285 24.7055 17.1228 24.7055 16.8657V2.58752C24.7055 2.33037 24.4998 2.12465 24.2426 2.12465H1.67789Z" fill="white"/>
<path d="M27.322 21.514H4.75728C4.14013 21.514 3.60654 21.1283 3.3944 20.5818C3.29797 20.3311 3.4844 20.0547 3.7544 20.0547C3.91512 20.0547 4.05655 20.1575 4.11441 20.3054C4.21727 20.5625 4.46156 20.7426 4.75728 20.7426H27.322C27.7013 20.7426 28.0099 20.434 28.0099 20.0547V5.78297C28.0099 5.49368 27.8299 5.24296 27.5727 5.1401C27.4249 5.08225 27.322 4.94082 27.322 4.7801C27.322 4.51009 27.5984 4.32366 27.8492 4.42009C28.3956 4.63224 28.7813 5.15939 28.7813 5.78297V20.0611C28.7813 20.8647 28.132 21.514 27.322 21.514Z" fill="white"/>
<path d="M27.3221 21.7388H4.75735C4.06948 21.7388 3.43947 21.308 3.18875 20.6652C3.11804 20.4787 3.13732 20.2666 3.25304 20.0995C3.36875 19.9323 3.55519 19.8359 3.75448 19.8359C4.00519 19.8359 4.2302 19.9902 4.32663 20.228C4.39734 20.4016 4.57092 20.5237 4.75735 20.5237H27.3221C27.5792 20.5237 27.785 20.318 27.785 20.0609V5.78274C27.785 5.59631 27.6692 5.42274 27.4892 5.35202C27.2514 5.25559 27.0971 5.03702 27.0971 4.77987C27.0971 4.58058 27.1935 4.38772 27.3607 4.27843C27.5278 4.16271 27.74 4.137 27.9264 4.21414C28.5693 4.46486 29 5.09487 29 5.78274V20.0609C29.0064 20.9866 28.2542 21.7388 27.3221 21.7388ZM3.75448 20.2795C3.67733 20.2795 3.63876 20.3309 3.61947 20.3502C3.60662 20.3695 3.57447 20.4273 3.60019 20.5045C3.78662 20.9738 4.24306 21.2952 4.75092 21.2952H27.3157C27.9971 21.2952 28.55 20.7423 28.55 20.0609V5.78274C28.55 5.27488 28.235 4.81844 27.7592 4.63201C27.6885 4.60629 27.6307 4.63201 27.6049 4.65129C27.5857 4.66415 27.5342 4.70915 27.5342 4.78629C27.5342 4.85058 27.5792 4.91487 27.6435 4.93416C27.9907 5.06916 28.2221 5.40988 28.2221 5.78274V20.0609C28.2221 20.5623 27.8107 20.9738 27.3092 20.9738H4.74449C4.37163 20.9738 4.03091 20.7423 3.89591 20.3952C3.88305 20.3245 3.82519 20.2795 3.75448 20.2795Z" fill="white"/>
<path d="M22.742 5.08195C23.0331 5.08195 23.2691 4.84594 23.2691 4.5548C23.2691 4.26366 23.0331 4.02765 22.742 4.02765C22.4509 4.02765 22.2148 4.26366 22.2148 4.5548C22.2148 4.84594 22.4509 5.08195 22.742 5.08195Z" fill="white"/>
<path d="M22.7419 5.30699C22.324 5.30699 21.9897 4.9727 21.9897 4.55483C21.9897 4.13697 22.324 3.80267 22.7419 3.80267C23.1598 3.80267 23.4941 4.13697 23.4941 4.55483C23.4941 4.9727 23.1533 5.30699 22.7419 5.30699ZM22.7419 4.25268C22.5748 4.25268 22.4398 4.38769 22.4398 4.55483C22.4398 4.72198 22.5748 4.85698 22.7419 4.85698C22.909 4.85698 23.0441 4.72198 23.0441 4.55483C23.0441 4.38769 22.909 4.25268 22.7419 4.25268Z" fill="white"/>
<path d="M13.2878 10.5011H10.0542C9.84203 10.5011 9.66846 10.3275 9.66846 10.1154C9.66846 9.90325 9.84203 9.72968 10.0542 9.72968H13.2878C13.5 9.72968 13.6735 9.90325 13.6735 10.1154C13.6735 10.3275 13.5 10.5011 13.2878 10.5011Z" fill="white"/>
<path d="M13.288 10.7262H10.0543C9.72004 10.7262 9.4436 10.4562 9.4436 10.1155C9.4436 9.77477 9.71361 9.50476 10.0543 9.50476H13.288C13.6223 9.50476 13.8987 9.77477 13.8987 10.1155C13.8987 10.4562 13.6223 10.7262 13.288 10.7262ZM10.0543 9.9612C9.96433 9.9612 9.89361 10.0319 9.89361 10.1219C9.89361 10.2119 9.96433 10.2826 10.0543 10.2826H13.288C13.378 10.2826 13.4487 10.2119 13.4487 10.1219C13.4487 10.0319 13.378 9.9612 13.288 9.9612H10.0543Z" fill="white"/>
<path d="M11.0574 14.0243V5.59627C11.0574 5.35841 11.2502 5.15912 11.4945 5.15912C11.7324 5.15912 11.9317 5.35198 11.9317 5.59627V14.0243C11.9317 14.2622 11.7388 14.4614 11.4945 14.4614C11.2502 14.4614 11.0574 14.2622 11.0574 14.0243Z" fill="white"/>
<path d="M11.4944 14.6863C11.128 14.6863 10.8323 14.3906 10.8323 14.0241V5.59612C10.8323 5.22968 11.128 4.93396 11.4944 4.93396C11.8609 4.93396 12.1566 5.22968 12.1566 5.59612V14.0241C12.1566 14.3841 11.8544 14.6863 11.4944 14.6863ZM11.4944 5.38397C11.3787 5.38397 11.2823 5.4804 11.2823 5.59612V14.0241C11.2823 14.1399 11.3787 14.2363 11.4944 14.2363C11.6101 14.2363 11.7066 14.1399 11.7066 14.0241V5.59612C11.7066 5.4804 11.6101 5.38397 11.4944 5.38397Z" fill="white"/>
<path d="M13.2878 12.0058H10.0542C9.84203 12.0058 9.66846 11.8322 9.66846 11.62C9.66846 11.4079 9.84203 11.2343 10.0542 11.2343H13.2878C13.5 11.2343 13.6735 11.4079 13.6735 11.62C13.6735 11.8322 13.5 12.0058 13.2878 12.0058Z" fill="white"/>
<path d="M13.288 12.2306H10.0543C9.72004 12.2306 9.4436 11.9605 9.4436 11.6198C9.4436 11.2791 9.71361 11.0091 10.0543 11.0091H13.288C13.6223 11.0091 13.8987 11.2791 13.8987 11.6198C13.8987 11.9605 13.6223 12.2306 13.288 12.2306ZM10.0543 11.4655C9.96433 11.4655 9.89361 11.5363 9.89361 11.6263C9.89361 11.7163 9.96433 11.787 10.0543 11.787H13.288C13.378 11.787 13.4487 11.7163 13.4487 11.6263C13.4487 11.5363 13.378 11.4655 13.288 11.4655H10.0543Z" fill="white"/>
<path d="M14.111 10.4882H11.4431V9.7168H14.111C15.2553 9.7168 16.1811 8.86821 16.1811 7.82676C16.1811 6.78531 15.2489 5.93673 14.111 5.93673H11.5267V5.16528H14.111C15.6796 5.16528 16.9525 6.36102 16.9525 7.82676C16.9525 9.2925 15.6796 10.4882 14.111 10.4882Z" fill="white"/>
<path d="M14.1112 10.7133H11.2183V9.49188H14.1112C15.1269 9.49188 15.9562 8.74615 15.9562 7.82685C15.9562 6.90755 15.1269 6.16182 14.1112 6.16182H11.3018V4.94037H14.1112C15.8019 4.94037 17.1777 6.23253 17.1777 7.82685C17.1777 9.42116 15.8019 10.7133 14.1112 10.7133ZM11.6683 10.2633H14.1112C15.5576 10.2633 16.7277 9.17045 16.7277 7.82685C16.7277 6.48325 15.5512 5.39038 14.1112 5.39038H11.7518V5.71181H14.1112C15.3776 5.71181 16.4062 6.66326 16.4062 7.82685C16.4062 8.99044 15.3776 9.94189 14.1112 9.94189H11.6683V10.2633Z" fill="white"/>
</svg>
