<svg width="100" height="93" viewBox="0 0 100 93" fill="none" xmlns="http://www.w3.org/2000/svg">
<path fill-rule="evenodd" clip-rule="evenodd" d="M37.4114 30.9714C37.4079 27.9151 34.9311 25.4383 31.8749 25.4348H17.1636C14.1073 25.4383 11.6306 27.9151 11.6271 30.9714V33.6079H2.45192C1.1998 33.6079 0.184783 34.6229 0.184783 35.875V52.2208C0.188906 53.1779 0.793722 54.0294 1.69621 54.3485L1.8194 54.392V65.2981C1.8194 66.5502 2.83441 67.5652 4.08654 67.5652H44.9519C46.204 67.5652 47.2191 66.5502 47.2191 65.2981V54.392L47.3269 54.3539L47.3423 54.3485C48.2446 54.0295 48.8494 53.1781 48.8537 52.2212V51.9253V35.875C48.8537 34.6229 47.8387 33.6079 46.5865 33.6079H37.8652H37.4114V30.9714ZM12.8921 30.9709C12.8949 28.6133 14.8056 26.7026 17.1632 26.6998L31.875 26.6998C34.2327 26.7026 36.1435 28.6133 36.1463 30.9709V33.6079H34.107L34.1421 30.9715L34.1421 30.9702C34.139 29.7196 33.1256 28.7066 31.8749 28.704H17.1334C15.8822 28.7066 14.8685 29.7203 14.8661 30.9715V30.9784L14.8898 33.6079H12.8921V30.9709ZM16.1279 30.9712C16.1279 30.4177 16.5765 29.9691 17.13 29.9691H31.875C32.423 29.9691 32.8694 30.4091 32.8771 30.9571V30.9622L32.842 33.6079H16.1551L16.1279 30.9712ZM9.17517 57.125C8.99039 57.7575 9.45839 57.7575 9.80769 57.7575H13.0769C13.4262 57.7575 13.7094 57.6195 13.7094 57.125V54.4883H35.329V57.125C35.3451 57.7575 35.6122 57.7575 35.9615 57.7575H39.2308C39.5801 57.7575 40.0481 57.587 39.8633 57.125C39.8633 56.0953 39.8633 54.4883 39.8633 54.4883H45.954V65.2981C45.954 65.8515 45.5053 66.3002 44.9519 66.3002H4.08654C3.53313 66.3002 3.08445 65.8515 3.08445 65.2981V54.4883H9.17517V57.125ZM11.4434 51.2191C11.9963 51.2196 12.4444 51.6681 12.4444 52.2212V56.4925H10.4402V52.2215C10.4402 51.6311 10.8904 51.2185 11.4434 51.2191ZM36.5941 52.2212C36.5941 51.6677 37.0427 51.2191 37.5962 51.2191C37.8664 51.2184 38.125 51.3289 38.3111 51.5248C38.4965 51.709 38.6 51.9601 38.5982 52.2216L38.5982 52.2226L38.4135 52.2212V56.3077H36.7788V56.1229L36.5941 56.4925V52.2212ZM39.8633 52.222C39.8575 50.9722 38.8456 49.9596 37.5958 49.954C36.3438 49.9542 35.329 50.9692 35.329 52.2212V53.2232H13.7094V52.2212C13.7094 50.9692 12.6947 49.9542 11.4427 49.954C10.1934 49.9613 9.18241 50.9724 9.17517 52.2217V53.2232H2.45192C1.89851 53.2232 1.44983 52.7746 1.44983 52.2212V35.875C1.44983 35.3216 1.89851 34.8729 2.45192 34.8729H46.5865C47.1399 34.8729 47.5886 35.3216 47.5886 35.875V52.2212C47.5886 52.7746 47.1399 53.2232 46.5865 53.2232H39.8633L39.8633 52.222Z" fill="#623B2A"/>
<path d="M45.954 65.2981C45.954 66.0142 45.4033 66.3002 44.9519 66.3002H4.08654C3.39075 66.3002 3.08445 65.7494 3.08445 65.2981V54.4883H9.17517V57.125C9.17517 57.5764 9.35633 57.7575 9.80769 57.7575H13.0769C13.5283 57.7575 13.7094 57.5245 13.7094 57.0732V54.4883H35.329V57.125C35.329 57.5764 35.5102 57.7575 35.9615 57.7575H39.2308C39.6821 57.7575 39.8633 57.5764 39.8633 57.125C39.8633 56.0953 39.8633 54.4883 39.8633 54.4883H45.954V65.2981Z" fill="#623B2A"/>
<path fill-rule="evenodd" clip-rule="evenodd" d="M37.4114 30.9714C37.4079 27.9151 34.9311 25.4383 31.8749 25.4348H17.1636C14.1073 25.4383 11.6306 27.9151 11.6271 30.9714V33.6079H2.45192C1.1998 33.6079 0.184783 34.6229 0.184783 35.875V52.2208C0.188906 53.1779 0.793722 54.0294 1.69621 54.3485L1.8194 54.392V65.2981C1.8194 66.5502 2.83441 67.5652 4.08654 67.5652H44.9519C46.204 67.5652 47.2191 66.5502 47.2191 65.2981V54.392L47.3269 54.3539L47.3423 54.3485C48.2446 54.0295 48.8494 53.1781 48.8537 52.2212V51.9253V35.875C48.8537 34.6229 47.8387 33.6079 46.5865 33.6079H37.8652H37.4114V30.9714ZM12.8921 30.9709C12.8949 28.6133 14.8056 26.7026 17.1632 26.6998L31.875 26.6998C34.2327 26.7026 36.1435 28.6133 36.1463 30.9709V33.6079H34.107L34.1421 30.9715L34.1421 30.9702C34.139 29.7196 33.1256 28.7066 31.8749 28.704H17.1334C15.8822 28.7066 14.8685 29.7203 14.8661 30.9715V30.9784L14.8898 33.6079H12.8921V30.9709ZM16.1279 30.9712C16.1279 30.4177 16.5765 29.9691 17.13 29.9691H31.875C32.423 29.9691 32.8694 30.4091 32.8771 30.9571V30.9622L32.842 33.6079H16.1551L16.1279 30.9712ZM9.17517 57.125C9.17517 57.4743 9.45839 57.7575 9.80769 57.7575H13.0769C13.4262 57.7575 13.7094 57.4743 13.7094 57.125V54.4883H35.329V57.125C35.329 57.4743 35.6122 57.7575 35.9615 57.7575H39.2308C39.5801 57.7575 39.8633 57.4743 39.8633 57.125V54.4883H45.954V65.2981C45.954 65.8515 45.5053 66.3002 44.9519 66.3002H4.08654C3.53313 66.3002 3.08445 65.8515 3.08445 65.2981V54.4883H9.17517V57.125ZM11.4434 51.2191C11.9963 51.2196 12.4444 51.6681 12.4444 52.2212V56.4925H10.4402V52.2215C10.4402 51.6311 10.8904 51.2185 11.4434 51.2191ZM36.5941 52.2212C36.5941 51.6677 37.0427 51.2191 37.5962 51.2191C37.8664 51.2184 38.125 51.3289 38.3111 51.5248C38.4965 51.709 38.6 51.9601 38.5982 52.2216L38.5982 52.2226L38.4135 52.2212V56.3077H36.7788V56.1229L36.5941 56.4925V52.2212ZM39.8633 52.222C39.8575 50.9722 38.8456 49.9596 37.5958 49.954C36.3438 49.9542 35.329 50.9692 35.329 52.2212V53.2232H13.7094V52.2212C13.7094 50.9692 12.6947 49.9542 11.4427 49.954C10.1934 49.9613 9.18241 50.9724 9.17517 52.2217V53.2232H2.45192C1.89851 53.2232 1.44983 52.7746 1.44983 52.2212V35.875C1.44983 35.3216 1.89851 34.8729 2.45192 34.8729H46.5865C47.1399 34.8729 47.5886 35.3216 47.5886 35.875V52.2212C47.5886 52.7746 47.1399 53.2232 46.5865 53.2232H39.8633L39.8633 52.222Z" fill="#E04E39"/>
<path d="M11.4423 49.7692C10.0913 49.7768 8.99794 50.8701 8.99039 52.2212V53.0385H2.45192C2.00056 53.0385 1.63462 52.6725 1.63462 52.2212V35.875C1.63462 35.4236 2.00056 35.0577 2.45192 35.0577H38.3026H38.5264H46.5865C47.0379 35.0577 47.4038 35.4236 47.4038 35.875V49.6044V49.8627V52.2212C47.4038 52.6264 47.1088 52.9628 46.7218 53.0273C46.6778 53.0346 46.6326 53.0385 46.5865 53.0385H40.0481V52.2212C40.0423 50.8694 38.9479 49.7751 37.5962 49.7692C36.242 49.7692 35.1442 50.867 35.1442 52.2212V53.0385H13.8942V52.2212C13.8942 50.867 12.7965 49.7692 11.4423 49.7692Z" fill="#E04E39"/>
<path d="M11.4434 51.2191C10.782 51.1196 10.4402 51.5819 10.4402 52.2215V56.0485V56.4925H12.4444V52.2212C12.4444 51.7698 12.1273 51.2191 11.4434 51.2191Z" fill="#E04E39"/>
<path d="M37.5962 51.2191C37.0427 51.2191 36.5941 51.6677 36.5941 52.2212V56.4925L36.7788 56.1229V56.3077H38.4135V52.2212L38.5982 52.2226L38.5982 52.2216C38.6 51.9601 38.4965 51.709 38.3111 51.5248L38.3133 51.5271L38.1789 51.6539L38.3087 51.5224L38.3111 51.5248C38.125 51.3289 37.8664 51.2184 37.5962 51.2191Z" fill="#E04E39"/>
<path d="M14.6813 30.9712V30.9793L14.7034 33.4231H13.0769V30.9712C13.0796 28.7154 14.9077 26.8873 17.1635 26.8846H31.875C34.1308 26.8873 35.9589 28.7154 35.9615 30.9712V33.4231H34.2942L34.3269 30.9712C34.3243 29.6181 33.2281 28.5219 31.875 28.5192H17.1332C15.7802 28.5219 14.684 29.6181 14.6813 30.9712Z" fill="#E04E39"/>
<path fill-rule="evenodd" clip-rule="evenodd" d="M37.4114 30.9714C37.4079 27.9151 34.9311 25.4383 31.8749 25.4348H17.1636C14.1073 25.4383 11.6306 27.9151 11.6271 30.9714V33.6079H2.45192C1.1998 33.6079 0.184783 34.6229 0.184783 35.875V52.2208C0.188906 53.1779 0.793722 54.0294 1.69621 54.3485L1.8194 54.392V65.2981C1.8194 66.5502 2.83441 67.5652 4.08654 67.5652H44.9519C46.204 67.5652 47.2191 66.5502 47.2191 65.2981V54.392L47.3269 54.3539L47.3423 54.3485C48.2446 54.0295 48.8494 53.1781 48.8537 52.2212V51.9253V35.875C48.8537 34.6229 47.8387 33.6079 46.5865 33.6079H37.8652H37.4114V30.9714ZM12.8921 30.9709C12.8949 28.6133 14.8056 26.7026 17.1632 26.6998L31.875 26.6998C34.2327 26.7026 36.1435 28.6133 36.1463 30.9709V33.6079H34.107L34.1421 30.9715L34.1421 30.9702C34.139 29.7196 33.1256 28.7066 31.8749 28.704H17.1334C15.8822 28.7066 14.8685 29.7203 14.8661 30.9715V30.9784L14.8898 33.6079H12.8921V30.9709ZM16.1279 30.9712C16.1279 30.4177 16.5765 29.9691 17.13 29.9691H31.875C32.423 29.9691 32.8694 30.4091 32.8771 30.9571V30.9622L32.842 33.6079H16.1551L16.1279 30.9712ZM9.17517 57.125C9.17517 57.4743 9.45839 57.7575 9.80769 57.7575H13.0769C13.4262 57.7575 13.7094 57.4743 13.7094 57.125V54.4883H35.329V57.125C35.329 57.4743 35.6122 57.7575 35.9615 57.7575H39.2308C39.5801 57.7575 39.8633 57.4743 39.8633 57.125V54.4883H45.954V65.2981C45.954 65.8515 45.5053 66.3002 44.9519 66.3002H4.08654C3.53313 66.3002 3.08445 65.8515 3.08445 65.2981V54.4883H9.17517V57.125ZM11.4434 51.2191C11.9963 51.2196 12.4444 51.6681 12.4444 52.2212V56.4925H10.4402V52.2212C10.4402 51.6307 10.8904 51.2185 11.4434 51.2191ZM36.5941 52.2212C36.5941 51.6677 37.0427 51.2191 37.5962 51.2191C37.8664 51.2184 38.125 51.3289 38.3111 51.5248C38.4965 51.709 38.6 51.9601 38.5982 52.2216L38.5982 52.2226L38.5982 52.4258V56.4925H37.1807H36.5941V52.2212Z" fill="#B6916A"/>
</svg>
