<svg width="100" height="93" viewBox="0 0 100 93" fill="none" xmlns="http://www.w3.org/2000/svg">
<path d="M22.2394 24.2731C13.344 24.2718 5.30453 29.5741 1.80334 37.7515L1.52624 37.8434L1.63367 38.1657C-2.97618 49.5353 2.50358 62.4892 13.8732 67.099C16.5286 68.1757 19.3673 68.7285 22.2328 68.7269C34.5083 68.7287 44.4612 58.7789 44.463 46.5033C44.4649 34.2278 34.515 24.2749 22.2394 24.2731ZM39.6739 57.7064L38.5325 56.5658V53.909C38.5338 53.7943 38.5084 53.681 38.4584 53.5778L35.5689 47.8069V45.0182C35.5689 44.7706 35.4453 44.5392 35.2392 44.4018L33.0165 42.92C32.8423 42.8037 32.627 42.7665 32.4238 42.8178L29.7018 43.4979L25.1297 41.536L24.5007 37.1292L26.244 35.3866H29.9863L31.2458 37.2796C31.3595 37.4498 31.5387 37.5655 31.7407 37.5989L36.1861 38.3398C36.3052 38.3598 36.4272 38.3501 36.5417 38.3116L40.6359 36.9469C44.0699 43.5367 43.7026 51.4625 39.6739 57.7064ZM36.618 31.5739L35.4133 32.3771L32.0549 31.7051L29.8759 30.9797C29.7425 30.9344 29.599 30.9287 29.4625 30.9634L26.7078 31.6517L25.5001 31.2494L26.3952 29.4594H28.9009C29.0158 29.4595 29.1292 29.4329 29.232 29.3816L31.7955 28.0999C33.5609 29.0213 35.185 30.1912 36.618 31.5739ZM14.1178 27.4093L15.8959 28.5948C15.9833 28.6529 16.0821 28.6918 16.1856 28.7089L19.776 29.3075L19.4255 30.3559L17.5548 30.9805C17.3872 31.0362 17.2451 31.1499 17.154 31.3013L15.0261 34.8472L11.6084 36.898L6.57026 37.6174C6.20509 37.669 5.93356 37.9814 5.93309 38.3502V40.5728C5.93309 40.7694 6.01126 40.9577 6.15017 41.0967L7.41488 42.3614V43.6342L4.33276 41.579L3.21475 38.2249C5.34186 33.3647 9.24054 29.4972 14.1178 27.4093ZM12.0084 51.7011L8.65959 51.0306L7.41488 48.5478V46.8067L10.1755 44.0462L11.1972 46.0903C11.3226 46.3415 11.5795 46.5001 11.8603 46.5H16.6272L18.6343 49.8452C18.7682 50.0681 19.0092 50.2044 19.2692 50.2045H21.3289L20.8103 52.8028L18.0052 55.6078C17.8661 55.7467 17.7877 55.935 17.7874 56.1316V57.9839L15.1202 59.9843C14.9337 60.1242 14.8238 60.3438 14.8238 60.577V63.2531L13.9022 62.9479L12.6012 59.6939V52.4272C12.6012 52.0751 12.3534 51.7715 12.0084 51.7011ZM9.78131 63.0906C2.79568 57.8498 -0.158553 48.7946 2.39235 40.4424L3.00804 42.2888C3.0599 42.445 3.16233 42.5796 3.29921 42.6711L6.99257 45.1331L6.15017 45.9762C6.01126 46.1151 5.93309 46.3035 5.93309 46.5V48.7227C5.933 48.8376 5.95958 48.951 6.01089 49.0539L7.49268 52.0175C7.59529 52.2221 7.78672 52.3679 8.0113 52.4124L11.1231 53.034V59.8361C11.123 59.9302 11.1408 60.0236 11.1757 60.111L12.6575 63.8155C12.7386 64.0178 12.9047 64.1743 13.1116 64.243L15.3343 64.9839C15.4086 65.0091 15.4864 65.022 15.5647 65.0224C15.9739 65.0224 16.3056 64.6907 16.3056 64.2815V60.9475L18.9729 58.9471C19.1594 58.8071 19.2692 58.5875 19.2692 58.3543V56.4384L22.0157 53.6919C22.119 53.5884 22.1894 53.4566 22.218 53.3133L22.9589 49.6088C23.0391 49.2075 22.7788 48.8172 22.3776 48.737C22.3299 48.7275 22.2814 48.7227 22.2328 48.7227H19.6886L17.6815 45.3775C17.5476 45.1546 17.3066 45.0183 17.0465 45.0182H12.3181L11.0453 42.4643C10.9387 42.2512 10.736 42.1022 10.5007 42.0643C10.2655 42.0236 10.0253 42.1012 9.85836 42.2717L8.89668 43.2297V42.0546C8.89668 41.8581 8.81851 41.6697 8.67959 41.5308L7.41488 40.2661V38.9925L11.9655 38.3427C12.0632 38.3286 12.1572 38.295 12.2418 38.2442L15.9463 36.0215C16.0502 35.9591 16.1373 35.872 16.1997 35.7681L18.2816 32.2985L20.2442 31.6436C20.4659 31.5709 20.6398 31.397 20.7125 31.1753L21.4534 28.9526C21.5817 28.5641 21.3709 28.1451 20.9824 28.0167C20.9465 28.0048 20.9097 27.9958 20.8725 27.9895L16.5842 27.2745L15.8307 26.7722C20.4931 25.2546 25.5428 25.4425 30.0796 27.3019L28.726 27.9776H25.9373C25.6551 27.976 25.3966 28.135 25.2705 28.3873L23.7887 31.3509C23.6061 31.7171 23.755 32.162 24.1212 32.3445C24.1524 32.3601 24.1846 32.3734 24.2177 32.3845L26.4403 33.1254C26.5737 33.1706 26.7173 33.1764 26.8538 33.1417L29.6084 32.4534L31.6266 33.1254C31.6555 33.1357 31.6852 33.1437 31.7155 33.1491L35.42 33.89C35.6126 33.9292 35.813 33.8898 35.9764 33.7803L37.6627 32.6556C38.4926 33.58 39.2384 34.5765 39.8913 35.6333L36.2461 36.8484L32.2994 36.1904L30.9954 34.2345C30.8587 34.0295 30.629 33.906 30.3827 33.9048H25.9373C25.7408 33.9048 25.5524 33.9829 25.4135 34.1219L23.1908 36.3445C23.0257 36.5095 22.948 36.7426 22.9811 36.9736L23.722 42.1598C23.7593 42.4163 23.9279 42.6346 24.1665 42.7355L29.3528 44.9582C29.5014 45.0226 29.6671 45.0358 29.824 44.996L32.4698 44.3344L34.0871 45.4146V47.9818C34.0858 48.0964 34.1112 48.2098 34.1612 48.313L37.0507 54.0838V56.8725C37.0507 57.0691 37.1289 57.2574 37.2678 57.3964L38.8178 58.9471C31.9438 68.1094 18.9437 69.9646 9.78131 63.0906Z" fill="#B6916A"/>
<path d="M12.0084 51.7011L8.65959 51.0306L7.41488 48.5478V46.8067L10.1755 44.0462L11.1972 46.0903C11.3226 46.3415 11.5795 46.5001 11.8603 46.5H16.6272L18.6343 49.8452C18.7682 50.0681 19.0092 50.2044 19.2692 50.2045H21.3289L20.8103 52.8028L18.0052 55.6078C17.8661 55.7467 17.7877 55.935 17.7874 56.1316V57.9839L15.1202 59.9843C14.9337 60.1242 14.8238 60.3438 14.8238 60.577V63.2531L13.9022 62.9479L12.6012 59.6939V52.4272C12.6012 52.0751 12.3534 51.7715 12.0084 51.7011Z" fill="#B6916A"/>
<path d="M39.6739 57.7064L38.5325 56.5658V53.909C38.5338 53.7943 38.5084 53.681 38.4584 53.5778L35.5689 47.8069V45.0182C35.5689 44.7706 35.4453 44.5392 35.2392 44.4018L33.0165 42.92C32.8423 42.8037 32.627 42.7665 32.4238 42.8178L29.7018 43.4979L25.1297 41.536L24.5007 37.1292L26.244 35.3866H29.9863L31.2458 37.2796C31.3595 37.4498 31.5387 37.5655 31.7407 37.5989L36.1861 38.3398C36.3052 38.3598 36.4272 38.3501 36.5417 38.3116L40.6359 36.9469C44.0699 43.5367 43.7026 51.4625 39.6739 57.7064Z" fill="#B6916A"/>
<path d="M14.1178 27.4093L15.8959 28.5948C15.9833 28.6529 16.0821 28.6918 16.1856 28.7089L19.776 29.3075L19.4255 30.3559L17.5548 30.9805C17.3872 31.0362 17.2451 31.1499 17.154 31.3013L15.0261 34.8472L11.6084 36.898L6.57026 37.6174C6.20509 37.669 5.93356 37.9814 5.93309 38.3502V40.5728C5.93309 40.7694 6.01126 40.9577 6.15017 41.0967L7.41488 42.3614V43.6342L4.33276 41.579L3.21475 38.2249C5.34186 33.3647 9.24054 29.4972 14.1178 27.4093Z" fill="#B6916A"/>
<path d="M36.618 31.5739L35.4133 32.3771L32.0549 31.7051L29.8759 30.9797C29.7425 30.9344 29.599 30.9287 29.4625 30.9634L26.7078 31.6517L25.5001 31.2494L26.3952 29.4594H28.9009C29.0158 29.4595 29.1292 29.4329 29.232 29.3816L31.7955 28.0999C33.5609 29.0213 35.185 30.1912 36.618 31.5739Z" fill="#B6916A"/>
</svg>
