<svg width="282" height="527" viewBox="0 0 282 527" fill="none" xmlns="http://www.w3.org/2000/svg">
<g opacity="0.03">
<path d="M161.143 441.668L120.267 401.035L79.3867 441.668L120.259 526.631L161.143 441.668Z" fill="white"/>
<path d="M120.264 167.614C104.887 167.614 92.4199 180.347 92.4199 196.051C92.4199 211.756 104.887 224.488 120.264 224.488C135.641 224.488 148.109 211.756 148.109 196.051C148.109 180.347 135.641 167.614 120.264 167.614Z" fill="white"/>
<path d="M120.263 40.8329C111.715 45.2462 0 104.765 0 199.866C0 281.213 65.7552 404.589 65.7552 404.589L120.263 349.534L174.774 404.589C174.774 404.589 240.529 281.213 240.529 199.866C240.529 104.765 128.814 45.2462 120.263 40.8329ZM156.255 312.39L120.263 276.04L84.275 312.39C82.4363 307.346 58.3257 241.544 58.3257 198.613C58.3257 140.698 115.935 108.251 120.263 105.876C124.594 108.251 182.204 140.698 182.204 198.613C182.204 241.544 158.093 307.346 156.255 312.39Z" fill="white"/>
<path d="M240.829 1.06057e-06L199.659 41.3571L240.829 82.7142L282 41.3571L240.829 1.06057e-06Z" fill="white"/>
</g>
</svg>
