<svg width="10" height="10" viewBox="0 0 10 10" fill="none" xmlns="http://www.w3.org/2000/svg">
<g clip-path="url(#clip0)">
<path d="M0.959803 3.4934C1.0863 3.58266 1.46762 3.84778 2.10376 4.28861C2.73993 4.72944 3.22728 5.06887 3.56583 5.30691C3.60302 5.33301 3.68204 5.38973 3.80293 5.47715C3.92384 5.56464 4.02431 5.63534 4.10425 5.68926C4.18425 5.74317 4.28096 5.80364 4.39448 5.87059C4.50796 5.93747 4.61493 5.98778 4.71538 6.02109C4.81584 6.05467 4.90884 6.0713 4.99439 6.0713H5H5.00563C5.09118 6.0713 5.18422 6.05465 5.28468 6.02109C5.38509 5.98778 5.49216 5.93741 5.60554 5.87059C5.71898 5.80356 5.81569 5.74315 5.89569 5.68926C5.97569 5.63534 6.07608 5.56464 6.19703 5.47715C6.3179 5.38965 6.39702 5.33301 6.43421 5.30691C6.77641 5.06887 7.64703 4.4643 9.04579 3.49328C9.31735 3.30363 9.54424 3.07479 9.7265 2.80692C9.9089 2.53917 10 2.25828 10 1.96441C10 1.71884 9.9116 1.50863 9.73487 1.3338C9.55815 1.15892 9.34886 1.07153 9.10712 1.07153H0.89282C0.60638 1.07153 0.385946 1.16824 0.231556 1.36167C0.0771853 1.55513 0 1.79695 0 2.0871C0 2.32147 0.10234 2.57544 0.306923 2.84887C0.511487 3.12231 0.729185 3.33717 0.959803 3.4934Z" fill="#E04E39"/>
<path d="M9.4419 4.09045C8.22179 4.91627 7.29533 5.55807 6.66297 6.01571C6.45092 6.1719 6.2789 6.29382 6.14679 6.38119C6.01469 6.46862 5.83899 6.5579 5.61946 6.649C5.4 6.74024 5.19547 6.78572 5.00571 6.78572H5.00002H4.99441C4.80468 6.78572 4.60004 6.74024 4.38058 6.649C4.16113 6.5579 3.98531 6.46862 3.85324 6.38119C3.72121 6.29382 3.54914 6.1719 3.33711 6.01571C2.83484 5.64743 1.91038 5.00559 0.563673 4.09045C0.351565 3.94918 0.163694 3.78724 0 3.60498V8.03566C0 8.28135 0.0873881 8.49144 0.262262 8.6663C0.437097 8.84121 0.647328 8.92864 0.892879 8.92864H9.1072C9.35269 8.92864 9.5629 8.84121 9.73776 8.6663C9.91267 8.49138 10 8.28137 10 8.03566V3.60498C9.84002 3.78347 9.65406 3.9454 9.4419 4.09045Z" fill="#E04E39"/>
</g>
<defs>
<clipPath id="clip0">
<rect width="10" height="10" fill="white"/>
</clipPath>
</defs>
</svg>
