<svg width="20" height="18" viewBox="0 0 20 18" fill="none" xmlns="http://www.w3.org/2000/svg">
<path d="M3.8026 17.8348C2.89201 17.8348 2.03639 17.48 1.39287 16.8366C0.0643555 15.5079 0.0643555 13.3459 1.39287 12.0174L11.9276 1.4822C12.7763 0.632588 13.9059 0.165283 15.1069 0.165283C16.308 0.165283 17.4376 0.632588 18.2864 1.4822C19.1359 2.33157 19.6038 3.46052 19.6038 4.66146C19.6038 5.86263 19.1364 6.99153 18.2871 7.8404L9.99397 16.1327C9.74498 16.3816 9.34178 16.3816 9.09291 16.1327C8.84393 15.8838 8.84393 15.4806 9.09291 15.2315L17.3858 6.93923C17.9945 6.33063 18.3293 5.52161 18.3293 4.66146C18.3293 3.80146 17.9938 2.99192 17.3853 2.38325C16.7765 1.77466 15.9675 1.43974 15.1069 1.43974C14.2463 1.43974 13.4373 1.77466 12.8286 2.38325L2.29404 12.9184C1.46268 13.7505 1.46268 15.1035 2.29404 15.9354C3.10049 16.7408 4.50455 16.7408 5.31096 15.9354L12.3848 8.86099C12.5772 8.66864 12.6874 8.40239 12.6874 8.13099C12.6874 7.85579 12.5797 7.59638 12.3843 7.40095C11.9823 6.99896 11.327 6.99774 10.925 7.40095L6.09385 12.2326C5.84502 12.4817 5.44162 12.4817 5.19279 12.2326C4.94381 11.9838 4.94381 11.5804 5.19279 11.3316L10.0238 6.49993C10.9224 5.60134 12.3855 5.60134 13.2854 6.49993C13.7217 6.9361 13.9618 7.51556 13.9618 8.13103C13.9618 8.73833 13.7154 9.33267 13.286 9.76204L6.21217 16.8366C5.56865 17.48 4.71299 17.8348 3.8026 17.8348Z" fill="white"/>
</svg>
