<svg width="11" height="12" viewBox="0 0 11 12" fill="none" xmlns="http://www.w3.org/2000/svg">
<g clip-path="url(#clip0)">
<path d="M10.7534 9.30875L9.05461 7.60978C8.71625 7.27278 8.15591 7.28302 7.80575 7.6333L6.9499 8.48896C6.89583 8.45916 6.83987 8.42803 6.78102 8.395C6.24056 8.09554 5.50085 7.68509 4.72245 6.90613C3.94175 6.12552 3.53092 5.38467 3.23055 4.84386C3.19885 4.78657 3.16848 4.73133 3.13849 4.67887L3.71289 4.10532L3.99529 3.82258C4.34598 3.47179 4.35565 2.91161 4.01807 2.57363L2.3193 0.87447C1.98172 0.536959 1.42113 0.547198 1.07044 0.897982L0.591667 1.37951L0.604751 1.39249C0.444211 1.59734 0.31006 1.8336 0.210229 2.08837C0.118203 2.33089 0.0609084 2.56231 0.0347102 2.79421C-0.189602 4.65381 0.660181 6.35334 2.96638 8.65958C6.15425 11.8472 8.72326 11.6064 8.83409 11.5947C9.07547 11.5658 9.3068 11.5081 9.54188 11.4168C9.79445 11.3182 10.0305 11.1842 10.2353 11.024L10.2457 11.0333L10.7308 10.5584C11.0807 10.2076 11.0908 9.64727 10.7534 9.30875Z" fill="#E04E39"/>
</g>
<defs>
<clipPath id="clip0">
<rect width="11" height="11" fill="white" transform="translate(0 0.61554)"/>
</clipPath>
</defs>
</svg>
