<svg width="17" height="18" viewBox="0 0 17 18" fill="none" xmlns="http://www.w3.org/2000/svg">
<g clip-path="url(#clip0)">
<path d="M16.4355 16.0948L12.5242 12.1835C13.4938 11.0015 14.0781 9.48741 14.0781 7.83722C14.0781 4.05206 11.0068 0.980774 7.22168 0.980774C3.4332 0.980774 0.365234 4.05206 0.365234 7.83722C0.365234 11.6224 3.4332 14.6937 7.22168 14.6937C8.87187 14.6937 10.3826 14.1126 11.5646 13.1431L15.476 17.0511C15.7416 17.3167 16.1699 17.3167 16.4355 17.0511C16.7012 16.7888 16.7012 16.3571 16.4355 16.0948ZM7.22168 13.329C4.19023 13.329 1.72656 10.8653 1.72656 7.83722C1.72656 4.80909 4.19023 2.3421 7.22168 2.3421C10.2498 2.3421 12.7168 4.80909 12.7168 7.83722C12.7168 10.8653 10.2498 13.329 7.22168 13.329Z" fill="#E04E39"/>
</g>
<defs>
<clipPath id="clip0">
<rect width="17" height="17" fill="white" transform="translate(0 0.61554)"/>
</clipPath>
</defs>
</svg>
