<svg width="14" height="14" viewBox="0 0 14 14" fill="none" xmlns="http://www.w3.org/2000/svg">
<path fill-rule="evenodd" clip-rule="evenodd" d="M13.9998 6.99946V10.0322C13.9928 10.8241 13.7462 11.5954 13.2924 12.2445C12.8386 12.8937 12.1989 13.3902 11.4574 13.6689C10.8267 13.9043 10.1565 14.0161 9.48351 13.9981H4.22258C3.37397 14.0176 2.53941 13.7792 1.82916 13.3144C0.97098 12.7832 0.353889 11.9382 0.109078 10.9592C0.0387334 10.6601 0.00214555 10.3541 0 10.0468V4.05905C0 3.03137 0.287379 2.10856 1.01946 1.36402C1.71105 0.617676 2.65038 0.148093 3.66251 0.0427261C4.16328 -0.0023356 4.66405 -0.000914172 5.15848 0.000489256C5.28538 0.000849454 5.41186 0.00120847 5.53782 0.00078012H9.55693C10.4652 0.00078012 11.3378 0.147591 12.114 0.650942C12.9748 1.16492 13.6038 1.99143 13.8697 2.95797C13.95 3.28757 13.9916 3.62543 13.9935 3.96467C14.0033 4.6386 14 5.31253 13.9967 5.98647C13.9951 6.32343 13.9935 6.6604 13.9935 6.99736L13.9998 6.99946ZM6.94817 10.4983C6.25791 10.488 5.5861 10.2739 5.01724 9.88288C4.44838 9.49185 4.00786 8.94137 3.75111 8.30067C3.49435 7.65997 3.43282 6.95767 3.57424 6.28209C3.71567 5.60652 4.05374 4.98784 4.54594 4.50388C5.03814 4.01992 5.66248 3.69228 6.34044 3.56218C7.0184 3.43207 7.71969 3.50532 8.35613 3.77269C8.99256 4.04007 9.5357 4.48963 9.91724 5.06485C10.2988 5.64006 10.5017 6.31524 10.5004 7.00545C10.4897 7.93867 10.1101 8.82975 9.44457 9.48415C8.77904 10.1385 7.8816 10.5031 6.94817 10.4983ZM4.53399 6.99866C4.52501 7.47923 4.65932 7.95159 4.91982 8.35555C5.18032 8.75951 5.5552 9.07679 5.99671 9.26695C6.43821 9.45712 6.92635 9.51155 7.39891 9.42333C7.87147 9.3351 8.30707 9.10821 8.65019 8.77156C8.99331 8.43492 9.22841 8.00375 9.32555 7.53302C9.42269 7.06229 9.37747 6.5733 9.19563 6.12836C9.0138 5.68342 8.7036 5.30268 8.30455 5.03465C7.90551 4.76663 7.43569 4.62345 6.95496 4.62336C6.31993 4.62091 5.70957 4.86895 5.25632 5.31365C4.80307 5.75835 4.54352 6.36382 4.53399 6.99866ZM11.4769 3.53436C11.5575 3.42187 11.6032 3.28813 11.6083 3.14984C11.609 2.96113 11.5363 2.77953 11.4057 2.64333C11.2751 2.50713 11.0966 2.42697 10.908 2.41976C10.7696 2.41901 10.6341 2.45904 10.5183 2.53485C10.4025 2.61065 10.3116 2.71888 10.257 2.84602C10.2023 2.97316 10.1863 3.11358 10.211 3.24974C10.2357 3.38591 10.2999 3.51179 10.3957 3.61166C10.4915 3.71154 10.6146 3.781 10.7497 3.81136C10.8847 3.84172 11.0257 3.83164 11.155 3.78238C11.2844 3.73311 11.3963 3.64685 11.4769 3.53436Z" fill="white"/>
</svg>
