<svg width="126" height="59" viewBox="0 0 126 59" fill="none" xmlns="http://www.w3.org/2000/svg">
<path d="M112.627 48.7844L108.163 44.3062L103.698 48.7844L108.162 58.1482L112.627 48.7844Z" fill="#E04E39"/>
<path d="M108.162 18.5476C106.449 18.5476 105.06 19.9429 105.06 21.6637C105.06 23.3845 106.449 24.7798 108.162 24.7798C109.875 24.7798 111.264 23.3845 111.264 21.6637C111.264 19.9429 109.875 18.5476 108.162 18.5476Z" fill="#B6916A"/>
<path d="M108.162 4.56308C107.218 5.04916 94.8681 11.6046 94.8681 22.079C94.8681 31.0386 102.137 44.6272 102.137 44.6272L108.162 38.5634L114.188 44.6272C114.188 44.6272 121.457 31.0386 121.457 22.079C121.457 11.6046 109.108 5.04916 108.162 4.56308ZM112.141 34.4724L108.162 30.4688L104.184 34.4724C103.981 33.9169 101.316 26.6694 101.316 21.941C101.316 15.5622 107.684 11.9886 108.162 11.7269C108.641 11.9886 115.01 15.5622 115.01 21.941C115.01 26.6694 112.344 33.9169 112.141 34.4724Z" fill="#C39367"/>
<path d="M121.457 -4.612e-06L116.913 4.56412L121.456 9.12824L126 4.56411L121.457 -4.612e-06Z" fill="#B6916A"/>
<path d="M78.7218 9.12723C78.7218 10.0819 78.2915 10.6365 77.5462 10.6365C76.8009 10.6365 76.3724 10.0488 76.3724 9.12723H72.5109C72.619 11.9692 74.2547 13.8869 77.6057 13.8869C80.6972 13.8869 82.4619 11.9163 82.581 9.12723H78.7218Z" fill="#623B2A"/>
<path d="M70.5552 28.2839L70.5571 14.9289H75.0182C75.0182 14.9289 75.0164 20.6915 75.0164 21.1473C75.0164 21.6021 74.9212 22.119 74.9212 22.119H75.1135L79.9693 14.9289H84.2368V28.2839H79.7756V22.0086C79.7756 21.5602 79.8731 21.1348 79.8731 21.1348H79.6795L74.8237 28.2839H70.5552Z" fill="#623B2A"/>
<path d="M61.3523 14.5881C65.5864 14.5881 68.7429 17.5947 68.7429 21.6259C68.7429 25.6171 65.5864 28.6256 61.3523 28.6256C57.1608 28.6256 54.0025 25.6171 54.0025 21.6259C54.0025 17.5947 57.1608 14.5881 61.3523 14.5881ZM61.3523 24.4739C62.9702 24.4739 64.0478 23.2097 64.0478 21.6259C64.0478 20.0017 62.9702 18.7384 61.3523 18.7384C59.7762 18.7384 58.6578 20.0017 58.6578 21.6259C58.6578 23.2097 59.7762 24.4739 61.3523 24.4739Z" fill="#623B2A"/>
<path d="M48.6578 14.9262C48.6578 14.9262 44.9318 19.7911 44.7817 19.9751C44.5981 20.2032 44.5825 20.3259 44.5825 20.3259H44.3889C44.3889 20.3259 44.3522 20.194 44.1769 19.9751C43.9146 19.6486 40.0545 14.9262 40.0545 14.9262H36.5364V28.2807H40.836V22.6745C40.836 22.0698 40.7389 21.7019 40.7389 21.7019H40.933L44.3898 25.6912H44.5761L47.7797 21.7019H47.9725C47.9725 21.7019 47.8763 22.0647 47.8763 22.6745V28.2807H52.1773V14.9262H48.6578Z" fill="#623B2A"/>
<path d="M8.01043 31.1038C5.76176 31.1038 3.4078 32.3588 2.5499 34.2313L2.42721 34.23C2.47482 34.035 2.55539 33.8428 2.56867 33.6579C2.77742 30.781 3.92007 28.4908 6.13715 27.6985C7.53113 27.2004 8.91366 26.9995 9.96795 26.7741C11.0955 26.5332 12.2523 26.2517 12.9321 26.0485L12.1818 23.7873C10.9462 24.1294 9.79628 24.3778 7.86211 24.7737C7.04449 24.9411 6.1518 25.085 5.10621 25.5274C1.55649 27.0284 0 30.0268 0 35.6795C0 40.7573 2.52243 44.7646 7.35945 44.7646C11.8051 44.7646 14.5065 41.2779 14.5065 37.7746C14.5065 33.7324 11.9287 31.1038 8.01043 31.1038ZM7.36586 42.509C4.39205 42.509 2.68815 39.7626 2.68815 36.6295C3.39086 34.8053 5.57636 33.3328 7.41851 33.3328C10.1108 33.3328 11.8275 35.015 11.8275 37.8933C11.8275 40.5656 9.88646 42.509 7.36586 42.509Z" fill="#623B2A"/>
<path d="M19.0062 40.5238C19.0062 40.5238 18.9563 40.5224 18.8839 40.5224C18.9416 40.3104 19.0062 39.9973 19.0062 39.6873V30.9558H16.3546V44.3104H18.7333L26.3285 34.7106H26.4522C26.3913 34.9199 26.3276 35.273 26.3276 35.5798V44.3104H28.9815V30.9558H26.6023L19.0062 40.5238Z" fill="#623B2A"/>
<path d="M39.0725 37.4643V37.4049C40.6409 36.8402 41.41 35.8 41.41 34.2549C41.41 32.0254 39.6049 30.5916 36.4096 30.5916C34.5733 30.5916 32.6392 31.1038 31.0456 32.3285L32.0907 34.2231C33.2833 33.2822 34.8073 32.815 36.0548 32.815C37.8003 32.815 38.7397 33.5411 38.7397 34.7299C38.7397 35.8 37.9184 36.5537 36.5872 36.5537H34.4868V38.6291H36.735C38.3625 38.6291 39.176 39.1883 39.176 40.2879C39.176 41.5957 37.8662 42.4869 35.8808 42.4869C34.4818 42.4869 32.8424 41.8822 31.7772 41.02L30.7293 42.9436C31.8852 43.9958 33.8793 44.7647 36.2026 44.7647C39.3962 44.7647 41.8394 43.0815 41.8394 40.6148C41.8394 38.98 40.8478 37.6721 39.0725 37.4643Z" fill="#623B2A"/>
<path d="M53.4733 36.4341H46.3391V30.9553H43.6875V44.3103H46.3391V38.5095H53.4733V44.3103H56.1271V30.9553H53.4733V36.4341Z" fill="#623B2A"/>
<path d="M64.4373 30.592C60.5273 30.592 57.9747 33.6786 57.9747 37.7484C57.9747 41.7658 60.542 44.7646 65.2005 44.7646C67.4487 44.7646 69.3627 44.0716 70.7407 42.9436L69.6928 41.0204C68.6719 41.7893 67.1154 42.5062 65.2774 42.5062C62.3677 42.5062 60.9613 40.9174 60.7063 38.5831H60.7155H70.8762C70.9036 38.3095 70.9201 38.0326 70.9201 37.7484C70.9201 33.6786 68.9631 30.592 64.4373 30.592ZM60.7453 36.5054C61.0826 34.4374 62.5883 32.832 64.5674 32.832C66.9662 32.832 68.1313 34.4512 68.3414 36.5054H60.7453Z" fill="#623B2A"/>
<path d="M80.0507 42.4529C77.3438 42.4529 75.3505 40.4088 75.3505 37.508C75.3505 35.0297 76.9404 32.8734 79.8982 32.8734C81.2428 32.8734 82.5978 33.2307 84.1543 34.2369C84.1543 34.2369 84.8296 33.0146 85.2329 32.2747C83.6402 31.1397 81.8004 30.5768 79.8277 30.5768C75.5451 30.5768 72.672 33.5968 72.672 37.6666C72.672 41.6316 75.5364 44.7647 79.8717 44.7647C81.9972 44.7647 83.8513 44.1512 85.2297 43.0231L84.1818 41.0995C83.1605 41.8689 81.6832 42.4529 80.0507 42.4529Z" fill="#623B2A"/>
</svg>
