<svg width="123" height="57" viewBox="0 0 123 57" fill="none" xmlns="http://www.w3.org/2000/svg">
<path d="M109.952 47.5994L105.596 43.23L101.24 47.5994L105.595 56.7358L109.952 47.5994Z" fill="white"/>
<path d="M105.596 18.0972C103.924 18.0972 102.569 19.4585 102.569 21.1375C102.569 22.8166 103.924 24.1779 105.596 24.1779C107.267 24.1779 108.622 22.8166 108.622 21.1375C108.622 19.4585 107.267 18.0972 105.596 18.0972Z" fill="white"/>
<path d="M105.596 4.45215C104.674 4.92642 92.6243 11.3226 92.6243 21.5426C92.6243 30.2846 99.7165 43.5431 99.7165 43.5431L105.596 37.6266L111.475 43.5431C111.475 43.5431 118.567 30.2846 118.567 21.5426C118.567 11.3226 106.518 4.92642 105.596 4.45215ZM109.478 33.635L105.596 29.7286L101.714 33.635C101.516 33.093 98.9152 26.0215 98.9152 21.408C98.9152 15.1841 105.129 11.6973 105.596 11.442C106.063 11.6973 112.276 15.1841 112.276 21.408C112.276 26.0215 109.676 33.093 109.478 33.635Z" fill="white"/>
<path d="M118.567 0.000105298L114.134 4.45337L118.567 8.90663L123 4.45337L118.567 0.000105298Z" fill="white"/>
<path d="M76.8701 8.90552C76.8701 9.83701 76.4502 10.3781 75.7231 10.3781C74.9959 10.3781 74.5778 9.80471 74.5778 8.90552H70.8101C70.9155 11.6785 72.5115 13.5495 75.7811 13.5495C78.7975 13.5495 80.5194 11.6269 80.6356 8.90552H76.8701Z" fill="white"/>
<path d="M68.9019 27.597L68.9037 14.5664H73.2565C73.2565 14.5664 73.2548 20.189 73.2548 20.6337C73.2548 21.0775 73.1619 21.5818 73.1619 21.5818H73.3495L78.0873 14.5664H82.2512V27.597H77.8984V21.4741C77.8984 21.0366 77.9935 20.6216 77.9935 20.6216H77.8046L73.0667 27.597H68.9019Z" fill="white"/>
<path d="M59.9226 14.2339C64.0538 14.2339 67.1336 17.1675 67.1336 21.1008C67.1336 24.995 64.0538 27.9304 59.9226 27.9304C55.8328 27.9304 52.7513 24.995 52.7513 21.1008C52.7513 17.1675 55.8328 14.2339 59.9226 14.2339ZM59.9226 23.8795C61.5011 23.8795 62.5526 22.6461 62.5526 21.1008C62.5526 19.516 61.5011 18.2834 59.9226 18.2834C58.3847 18.2834 57.2935 19.516 57.2935 21.1008C57.2935 22.6461 58.3847 23.8795 59.9226 23.8795Z" fill="white"/>
<path d="M47.5363 14.5637C47.5363 14.5637 43.9008 19.3105 43.7543 19.49C43.5752 19.7125 43.56 19.8323 43.56 19.8323H43.3711C43.3711 19.8323 43.3353 19.7036 43.1643 19.49C42.9083 19.1714 39.142 14.5637 39.142 14.5637H35.7093V27.5939H39.9044V22.1238C39.9044 21.5338 39.8098 21.1748 39.8098 21.1748H39.9991L43.372 25.0673H43.5538L46.6796 21.1748H46.8676C46.8676 21.1748 46.7738 21.5289 46.7738 22.1238V27.5939H50.9703V14.5637H47.5363Z" fill="white"/>
<path d="M7.87629 30.3485C5.68224 30.3485 3.38545 31.573 2.54839 33.4001L2.42868 33.3987C2.47513 33.2085 2.55375 33.0209 2.5667 32.8406C2.77038 30.0335 3.88528 27.799 6.04851 27.0259C7.40863 26.54 8.75758 26.3439 9.78626 26.124C10.8864 25.8889 12.0152 25.6143 12.6785 25.416L11.9464 23.2097C10.7408 23.5435 9.61876 23.7858 7.73157 24.1722C6.93381 24.3355 6.0628 24.4759 5.0426 24.9076C1.57911 26.3721 0.0604248 29.2976 0.0604248 34.813C0.0604248 39.7676 2.52159 43.6775 7.24112 43.6775C11.5788 43.6775 14.2146 40.2755 14.2146 36.8573C14.2146 32.9132 11.6994 30.3485 7.87629 30.3485ZM7.24738 41.4766C4.3458 41.4766 2.68328 38.797 2.68328 35.74C3.36892 33.9601 5.50134 32.5233 7.29874 32.5233C9.92562 32.5233 11.6006 34.1647 11.6006 36.9731C11.6006 39.5804 9.70675 41.4766 7.24738 41.4766Z" fill="white"/>
<path d="M18.605 39.5395C18.605 39.5395 18.5563 39.5381 18.4857 39.5381C18.542 39.3313 18.605 39.0257 18.605 38.7233V30.2039H16.0178V43.234H18.3387L25.7495 33.8675H25.8701C25.8107 34.0716 25.7486 34.4162 25.7486 34.7155V43.234H28.3379V30.2039H26.0166L18.605 39.5395Z" fill="white"/>
<path d="M38.1839 36.5544V36.4965C39.7142 35.9455 40.4646 34.9306 40.4646 33.423C40.4646 31.2477 38.7034 29.8486 35.5856 29.8486C33.794 29.8486 31.9068 30.3485 30.352 31.5434L31.3717 33.392C32.5353 32.474 34.0223 32.0181 35.2395 32.0181C36.9426 32.0181 37.8592 32.7266 37.8592 33.8865C37.8592 34.9306 37.0579 35.666 35.7589 35.666H33.7096V37.691H35.9032C37.4911 37.691 38.2849 38.2366 38.2849 39.3094C38.2849 40.5855 37.0069 41.4551 35.0697 41.4551C33.7047 41.4551 32.1052 40.8651 31.0657 40.0237L30.0433 41.9006C31.1712 42.9273 33.1169 43.6775 35.3837 43.6775C38.4997 43.6775 40.8836 42.0353 40.8836 39.6284C40.8836 38.0333 39.9161 36.7572 38.1839 36.5544Z" fill="white"/>
<path d="M52.2349 35.5492H45.274V30.2034H42.6868V43.234H45.274V37.5741H52.2349V43.234H54.8242V30.2034H52.2349V35.5492Z" fill="white"/>
<path d="M62.9326 29.8491C59.1176 29.8491 56.627 32.8608 56.627 36.8318C56.627 40.7516 59.1319 43.6775 63.6772 43.6775C65.8708 43.6775 67.7384 43.0013 69.0828 41.9007L68.0604 40.0242C67.0643 40.7745 65.5456 41.474 63.7523 41.474C60.9132 41.474 59.541 39.9237 59.2922 37.6461H59.3012H69.2151C69.2419 37.3792 69.2579 37.109 69.2579 36.8318C69.2579 32.8608 67.3484 29.8491 62.9326 29.8491ZM59.3302 35.6189C59.6594 33.6011 61.1285 32.0347 63.0595 32.0347C65.4 32.0347 66.5368 33.6146 66.7418 35.6189H59.3302Z" fill="white"/>
<path d="M78.1668 41.4218C75.5256 41.4218 73.5808 39.4274 73.5808 36.597C73.5808 34.179 75.1321 32.075 78.0181 32.075C79.3299 32.075 80.6521 32.4237 82.1708 33.4054C82.1708 33.4054 82.8296 32.2128 83.2231 31.4908C81.6692 30.3834 79.874 29.8342 77.9493 29.8342C73.7707 29.8342 70.9673 32.7808 70.9673 36.7518C70.9673 40.6205 73.7622 43.6774 77.9922 43.6774C80.0661 43.6774 81.8751 43.0789 83.22 41.9782L82.1976 40.1013C81.201 40.852 79.7596 41.4218 78.1668 41.4218Z" fill="white"/>
</svg>
