<svg width="214" height="71" viewBox="0 0 214 71" fill="none" xmlns="http://www.w3.org/2000/svg">
<path d="M175.266 103.484C163.369 103.484 152.052 101.162 141.315 95.939C138.994 94.7783 137.543 93.3273 137.543 90.7157C137.543 86.6532 137.543 82.5907 138.123 78.5282C138.704 74.1755 141.605 71.5639 145.958 69.8228C150.891 68.0818 155.534 65.4701 160.467 63.4388C161.628 62.8585 163.079 63.4388 164.239 63.4388C163.659 64.5996 163.369 66.0505 162.498 66.6308C157.856 68.9523 153.213 71.2737 148.28 73.0148C143.637 74.4657 141.605 77.3674 141.315 82.0103C140.735 93.6175 140.155 91.8764 150.021 95.3586C168.882 102.033 187.454 101.162 206.025 93.6175C208.637 92.4568 210.088 91.0059 209.798 87.8139C209.507 85.7826 209.798 83.7514 209.507 82.0103C209.217 77.6576 207.186 74.7558 202.543 73.3049C197.9 71.5639 193.257 69.2425 188.905 66.921C187.744 66.3407 187.454 64.5996 186.873 63.4388C188.324 63.4388 189.485 63.4389 190.646 63.729C195.289 65.7603 199.932 68.0818 204.865 69.8228C208.927 71.2737 212.119 73.8853 212.699 77.9478C213.28 82.5907 213.28 87.5237 212.99 92.1666C212.99 93.3273 210.958 94.7782 209.507 95.6488C199.061 101.452 187.454 103.484 175.266 103.484Z" fill="#E1E9F1"/>
<path d="M195.579 36.4523C194.128 41.6755 193.257 46.8987 191.226 51.8318C188.324 58.5059 182.521 61.1175 175.266 61.1175C168.302 61.1175 162.789 57.9255 159.887 51.5416C155.824 42.8362 155.244 33.8407 158.146 24.8451C160.467 17.0103 168.302 12.3674 176.717 13.2379C186.293 14.1085 192.677 19.6218 194.128 28.3272C194.418 30.9388 194.708 33.5505 194.998 36.1621C194.998 36.4523 195.289 36.4523 195.579 36.4523ZM191.226 36.1621C190.936 36.1621 190.936 36.1621 190.646 35.8719C190.646 33.8406 190.646 31.8094 190.356 30.0683C189.485 22.8138 184.552 17.8808 177.588 17.3004C169.753 16.4299 163.659 19.6219 161.628 26.296C159.306 34.1308 159.306 42.2559 162.789 49.8006C165.11 55.314 169.753 57.6353 175.556 57.6353C181.36 57.6353 186.003 55.0238 188.034 49.5104C189.775 45.1577 190.356 40.805 191.226 36.1621Z" fill="#E1E9F1"/>
<path d="M38.4914 104.141C26.594 104.141 15.277 101.82 4.54039 96.5966C2.21895 95.4359 0.768066 93.9849 0.768066 91.3733C0.768066 87.3108 0.768058 83.2483 1.34842 79.1858C1.92878 74.8331 4.83058 72.2215 9.18328 70.4804C14.1163 68.7393 18.7592 66.1277 23.6923 64.0964C24.853 63.5161 26.3039 64.0964 27.4646 64.0964C26.8842 65.2572 26.594 66.7081 25.7235 67.2884C21.0806 69.6099 16.4377 71.9313 11.5047 73.6724C6.86183 75.1233 4.83057 78.025 4.54039 82.6679C3.96003 94.2751 3.37967 92.534 13.2458 96.0162C32.1074 102.69 50.6789 101.82 69.2504 94.2751C71.862 93.1144 73.3129 91.6635 73.0228 88.4715C72.7326 86.4402 73.0227 84.409 72.7326 82.6679C72.4424 78.3152 70.4111 75.4134 65.7683 73.9625C61.1254 72.2214 56.4825 69.9001 52.1298 67.5786C50.9691 66.9983 50.6789 65.2572 50.0986 64.0964C51.5495 64.0964 52.7102 64.0965 53.8709 64.3866C58.5138 66.4179 63.1567 68.7393 68.0897 70.4804C72.1522 71.9313 75.3442 74.5429 75.9246 78.6054C76.5049 83.2483 76.5049 88.1813 76.2147 92.8242C76.2147 93.9849 74.1835 95.4358 72.7326 96.3064C62.2861 102.11 50.6789 104.141 38.4914 104.141Z" fill="#E1E9F1"/>
<path d="M58.8039 37.1099C57.353 42.3331 56.4825 47.5563 54.4512 52.4894C51.5494 59.1635 45.7458 61.7751 38.4913 61.7751C31.527 61.7751 26.0136 58.5831 23.1118 52.1992C19.0493 43.4938 18.469 34.4983 21.3708 25.5027C23.6922 17.6679 31.527 13.025 39.9422 13.8955C49.5182 14.7661 55.9021 20.2794 57.353 28.9848C57.6432 31.5964 57.9334 34.2081 58.2235 36.8197C58.2235 37.1099 58.5137 37.1099 58.8039 37.1099ZM54.4512 36.8197C54.161 36.8197 54.161 36.8197 53.8708 36.5295C53.8708 34.4982 53.8709 32.467 53.5807 30.7259C52.7102 23.4714 47.7771 18.5384 40.8128 17.958C32.9779 17.0875 26.8842 20.2795 24.8529 26.9536C22.5315 34.7884 22.5315 42.9135 26.0136 50.4582C28.3351 55.9716 32.9779 58.2929 38.7815 58.2929C44.5851 58.2929 49.228 55.6814 51.2592 50.168C53.0003 45.8153 53.5807 41.4626 54.4512 36.8197Z" fill="#E1E9F1"/>
<path d="M106.221 90.9896C94.324 90.9896 83.007 88.6682 72.2704 83.445C69.9489 82.2842 68.498 80.8333 68.498 78.2217C68.498 74.1592 68.498 70.0967 69.0784 66.0342C69.6588 61.6815 72.5606 59.0699 76.9133 57.3288C81.8463 55.5877 86.4892 52.9761 91.4222 50.9448C92.5829 50.3645 94.0338 50.9448 95.1946 50.9448C94.6142 52.1055 94.324 53.5565 93.4535 54.1368C88.8106 56.4583 84.1677 58.7797 79.2347 60.5208C74.5918 61.9717 72.5605 64.8734 72.2704 69.5163C71.69 81.1235 71.1096 79.3824 80.9758 82.8646C99.8374 89.5387 118.409 88.6681 136.98 81.1235C139.592 79.9628 141.043 78.5119 140.753 75.3199C140.463 73.2886 140.753 71.2574 140.463 69.5163C140.172 65.1636 138.141 62.2618 133.498 60.8109C128.855 59.0698 124.213 56.7485 119.86 54.427C118.699 53.8467 118.409 52.1055 117.829 50.9448C119.279 50.9448 120.44 50.9448 121.601 51.235C126.244 53.2663 130.887 55.5877 135.82 57.3288C139.882 58.7797 143.074 61.3913 143.655 65.4538C144.235 70.0967 144.235 75.0297 143.945 79.6726C143.945 80.8333 141.913 82.2842 140.463 83.1548C130.016 88.9584 118.409 90.9896 106.221 90.9896Z" fill="#E1E9F1"/>
<path d="M126.534 23.9584C125.083 29.1816 124.212 34.4048 122.181 39.3379C119.279 46.012 113.476 48.6236 106.221 48.6236C99.2568 48.6236 93.7434 45.4316 90.8416 39.0477C86.779 30.3423 86.1987 21.3468 89.1005 12.3512C91.4219 4.51637 99.2568 -0.126506 107.672 0.744032C117.248 1.61457 123.632 7.12793 125.083 15.8333C125.373 18.4449 125.663 21.0566 125.953 23.6682C125.953 23.9584 126.243 23.9584 126.534 23.9584ZM122.181 23.6682C121.891 23.6682 121.891 23.6682 121.601 23.378C121.601 21.3467 121.601 19.3155 121.31 17.5744C120.44 10.3199 115.507 5.38689 108.543 4.80653C100.708 3.93599 94.6139 7.12798 92.5826 13.8021C90.2612 21.637 90.2612 29.762 93.7434 37.3067C96.0648 42.8201 100.708 45.1415 106.511 45.1415C112.315 45.1415 116.958 42.5299 118.989 37.0165C120.73 32.6638 121.31 28.3111 122.181 23.6682Z" fill="#E1E9F1"/>
</svg>
