<svg width="26" height="27" viewBox="0 0 26 27" fill="none" xmlns="http://www.w3.org/2000/svg">
<path d="M13.0817 14.5181H11.341C11.1489 14.5181 10.9917 14.3609 10.9917 14.1688C10.9917 13.9766 11.1489 13.8195 11.341 13.8195H13.0817C13.2738 13.8195 13.431 13.9766 13.431 14.1688C13.431 14.3609 13.2738 14.5181 13.0817 14.5181Z" fill="white"/>
<path d="M13.0813 14.7217H11.3407C11.0379 14.7217 10.7876 14.4772 10.7876 14.1687C10.7876 13.8601 11.0321 13.6156 11.3407 13.6156H13.0813C13.3841 13.6156 13.6344 13.8601 13.6344 14.1687C13.6344 14.4772 13.3841 14.7217 13.0813 14.7217ZM11.3407 14.0289C11.2592 14.0289 11.1951 14.093 11.1951 14.1745C11.1951 14.256 11.2592 14.32 11.3407 14.32H13.0813C13.1629 14.32 13.2269 14.256 13.2269 14.1745C13.2269 14.093 13.1629 14.0289 13.0813 14.0289H11.3407Z" fill="white"/>
<path d="M11.8413 16.4802V11.4269C11.8413 11.2231 12.0101 11.0543 12.2139 11.0543C12.4177 11.0543 12.5865 11.2231 12.5865 11.4269V16.4802C12.5865 16.6839 12.4177 16.8528 12.2139 16.8528C12.0043 16.8528 11.8413 16.6839 11.8413 16.4802Z" fill="white"/>
<path d="M12.2138 17.0564C11.8936 17.0564 11.6375 16.8003 11.6375 16.4801V11.4268C11.6375 11.1066 11.8936 10.8505 12.2138 10.8505C12.534 10.8505 12.7901 11.1066 12.7901 11.4268V16.4801C12.7901 16.8003 12.5282 17.0564 12.2138 17.0564ZM12.2138 11.258C12.1207 11.258 12.045 11.3337 12.045 11.4268V16.4801C12.045 16.5732 12.1207 16.6489 12.2138 16.6489C12.3069 16.6489 12.3826 16.5732 12.3826 16.4801V11.4268C12.3826 11.3337 12.3069 11.258 12.2138 11.258Z" fill="white"/>
<path d="M13.0817 15.8805H11.341C11.1489 15.8805 10.9917 15.7233 10.9917 15.5312C10.9917 15.3391 11.1489 15.1819 11.341 15.1819H13.0817C13.2738 15.1819 13.431 15.3391 13.431 15.5312C13.431 15.7233 13.2738 15.8805 13.0817 15.8805Z" fill="white"/>
<path d="M13.0813 16.0842H11.3407C11.0379 16.0842 10.7876 15.8396 10.7876 15.5311C10.7876 15.2225 11.0321 14.978 11.3407 14.978H13.0813C13.3841 14.978 13.6344 15.2225 13.6344 15.5311C13.6344 15.8396 13.3841 16.0842 13.0813 16.0842ZM11.3407 15.3914C11.2592 15.3914 11.1951 15.4554 11.1951 15.5369C11.1951 15.6184 11.2592 15.6825 11.3407 15.6825H13.0813C13.1629 15.6825 13.2269 15.6184 13.2269 15.5369C13.2269 15.4554 13.1629 15.3914 13.0813 15.3914H11.3407Z" fill="white"/>
<path d="M13.6985 14.5241H12.0742V13.8255H13.6985C14.3272 13.8255 14.8454 13.3597 14.8454 12.7892C14.8454 12.2187 14.3331 11.7529 13.6985 11.7529H12.1266V11.0543H13.6985C14.7173 11.0543 15.544 11.8344 15.544 12.7892C15.5382 13.7498 14.7115 14.5241 13.6985 14.5241Z" fill="white"/>
<path d="M13.6986 14.7277H11.8706V13.6216H13.6986C14.2168 13.6216 14.6417 13.249 14.6417 12.7891C14.6417 12.3292 14.2168 11.9566 13.6986 11.9566H11.923V10.8505H13.6986C14.828 10.8505 15.7479 11.7179 15.7479 12.7891C15.7479 13.8603 14.8222 14.7277 13.6986 14.7277ZM12.2781 14.3202H13.6986C14.601 14.3202 15.3404 13.6332 15.3404 12.7891C15.3404 11.9449 14.6068 11.258 13.6986 11.258H12.3305V11.5491H13.6986C14.4438 11.5491 15.0493 12.1021 15.0493 12.7891C15.0493 13.4702 14.4438 14.0291 13.6986 14.0291H12.2781V14.3202Z" fill="white"/>
<path d="M24.7366 18.0577C24.5561 17.9936 24.463 17.8015 24.5212 17.621C24.8938 16.4451 25.0801 15.2225 25.0801 13.9766C25.0801 7.31077 19.6542 1.89075 12.9942 1.89075C9.08783 1.89075 5.43761 3.77116 3.16132 6.944C3.05071 7.09537 2.84112 7.13612 2.68394 7.03133C2.52093 6.92071 2.48017 6.69949 2.59661 6.53648C5.00098 3.18317 8.86078 1.19214 12.9942 1.19214C16.4115 1.19214 19.6193 2.51949 22.0353 4.93551C24.4513 7.35152 25.7787 10.5593 25.7787 13.9766C25.7787 15.2924 25.5808 16.5906 25.1849 17.8364C25.1267 18.0169 24.9229 18.1217 24.7366 18.0577Z" fill="white"/>
<path d="M24.853 18.2789C24.789 18.2789 24.7308 18.2673 24.6726 18.2498C24.3873 18.1508 24.2359 17.8481 24.3291 17.5629C24.6958 16.4102 24.8821 15.1992 24.8821 13.9767C24.8821 7.42141 19.5494 2.09453 13 2.09453C9.17513 2.09453 5.56566 3.95166 3.33594 7.06046C3.16129 7.30498 2.82945 7.36319 2.57912 7.19436C2.45686 7.10704 2.36953 6.97896 2.34625 6.83342C2.31714 6.68787 2.35207 6.53651 2.43939 6.41425C4.87869 3.01436 8.82582 0.988403 13.0058 0.988403C16.4756 0.988403 19.7357 2.33904 22.1925 4.79581C24.6434 7.24676 25.9999 10.5127 25.9999 13.9825C25.9999 15.3215 25.7961 16.6372 25.4003 17.9005C25.3537 18.0461 25.2547 18.1625 25.1208 18.2265C25.0219 18.2615 24.9403 18.2789 24.853 18.2789ZM12.9942 1.68119C19.7707 1.68119 25.2838 7.19436 25.2838 13.9708C25.2838 15.2342 25.0917 16.4858 24.7133 17.6793C24.69 17.755 24.7308 17.8365 24.8064 17.8598C24.8414 17.8714 24.8821 17.8714 24.9229 17.8539C24.9578 17.8365 24.9869 17.8074 24.9986 17.7666C25.3828 16.5441 25.5807 15.2633 25.5807 13.9708C25.5807 10.6117 24.2708 7.45052 21.8956 5.07525C19.5203 2.69999 16.3591 1.3901 13 1.3901C8.9539 1.3901 5.12903 3.35785 2.76541 6.64712C2.74212 6.67623 2.7363 6.71698 2.74212 6.75773C2.74794 6.79848 2.77123 6.83342 2.80616 6.85088C2.8702 6.89745 2.95752 6.87999 3.0041 6.81595C5.30368 3.60236 9.0354 1.68119 12.9942 1.68119Z" fill="white"/>
<path d="M12.9942 26.7611C9.57687 26.7611 6.3691 25.4337 3.95309 23.0177C1.53707 20.6017 0.209717 17.3939 0.209717 13.9766C0.209717 12.6376 0.413479 11.3277 0.815178 10.0702C0.873395 9.88388 1.07715 9.78491 1.26345 9.84895C1.44392 9.91299 1.53707 10.1051 1.47886 10.2856C1.09462 11.4732 0.902503 12.7191 0.902503 13.9824C0.902503 20.6482 6.32835 26.0683 12.9884 26.0683C16.8715 26.0683 20.5043 24.2053 22.7805 21.0732C22.8912 20.9219 23.1066 20.8811 23.2579 20.9917C23.4209 21.1023 23.4617 21.3236 23.3453 21.4866C20.9409 24.7933 17.0985 26.7611 12.9942 26.7611Z" fill="white"/>
<path d="M12.9941 26.9648C9.52434 26.9648 6.26418 25.6142 3.80741 23.1574C1.35646 20.7065 0 17.4405 0 13.9707C0 12.6143 0.209581 11.2811 0.617101 10.0003C0.663675 9.85479 0.762647 9.73836 0.896547 9.67432C1.03045 9.60446 1.18181 9.59863 1.32736 9.64521C1.61262 9.74418 1.76398 10.0469 1.67083 10.338C1.29824 11.5082 1.10613 12.7307 1.10613 13.9707C1.10613 20.526 6.43883 25.8529 12.9883 25.8529C16.784 25.8529 20.3819 24.019 22.6116 20.9394C22.7862 20.6948 23.1239 20.6366 23.3742 20.8055C23.4965 20.8928 23.5838 21.0209 23.6071 21.1664C23.6304 21.3119 23.6013 21.4633 23.5081 21.5856C21.0746 24.9563 17.1392 26.9648 12.9941 26.9648ZM1.14688 10.0294C1.12359 10.0294 1.1003 10.0353 1.08284 10.0469C1.04791 10.0644 1.0188 10.0935 1.00716 10.1342C0.611284 11.3743 0.407521 12.6667 0.407521 13.9824C0.407521 17.3415 1.71741 20.5027 4.09268 22.878C6.46794 25.2532 9.62913 26.5631 12.9883 26.5631C17.0053 26.5631 20.8185 24.6187 23.1821 21.3585C23.2054 21.3294 23.2112 21.2887 23.2054 21.2479C23.1996 21.2071 23.1763 21.1722 23.1414 21.1548C23.0773 21.1082 22.99 21.1256 22.9434 21.1897C20.638 24.3683 16.9121 26.272 12.9883 26.272C6.21178 26.272 0.698607 20.7589 0.698607 13.9824C0.698607 12.7016 0.896546 11.4325 1.28078 10.2274C1.30407 10.1517 1.26331 10.0702 1.19345 10.0469C1.17599 10.0294 1.16434 10.0294 1.14688 10.0294Z" fill="white"/>
<path d="M12.994 19.9789C9.60576 19.9789 6.86372 17.1553 6.99762 13.738C7.11988 10.6234 9.64069 8.09675 12.7611 7.97449C16.0562 7.84641 18.7924 10.3847 18.9904 13.6041C19.002 13.802 18.8448 13.9767 18.6411 13.9767C18.4548 13.9767 18.3034 13.8311 18.2918 13.6507C18.1171 10.8097 15.6953 8.56831 12.7902 8.67892C10.0366 8.78371 7.80685 11.0193 7.70206 13.7671C7.58562 16.7886 10.0075 19.2803 12.9998 19.2803C14.8802 19.2803 16.5918 18.3022 17.5524 16.7013C17.6456 16.5441 17.8493 16.4859 18.0123 16.5732C18.1928 16.6663 18.2568 16.8876 18.1521 17.0622C17.0576 18.8669 15.1189 19.9789 12.994 19.9789Z" fill="white"/>
<path d="M12.9941 20.1826C11.2941 20.1826 9.70479 19.5073 8.52298 18.2789C7.34117 17.0505 6.72406 15.4379 6.79392 13.7322C6.91618 10.5186 9.53596 7.8988 12.7495 7.77655C14.3855 7.71251 15.9573 8.28886 17.1682 9.38916C18.3733 10.4836 19.0894 11.9798 19.1884 13.5924C19.2 13.7438 19.1418 13.8952 19.037 14.0058C18.9322 14.1164 18.7867 14.1804 18.6353 14.1804C18.3442 14.1804 18.0997 13.9534 18.0823 13.6623C18.0007 12.335 17.4128 11.1066 16.4231 10.2042C15.4275 9.29601 14.1351 8.82446 12.7903 8.87685C10.1472 8.98164 7.99902 11.1299 7.89423 13.7729C7.84183 15.1701 8.3425 16.4975 9.31473 17.5105C10.287 18.5234 11.591 19.0765 12.9882 19.0765C14.7988 19.0765 16.4347 18.1509 17.3662 16.5965C17.5175 16.3461 17.8377 16.2588 18.0939 16.3927C18.2278 16.4626 18.3326 16.5848 18.3733 16.7362C18.4141 16.8817 18.3908 17.0389 18.3151 17.167C17.1857 19.0532 15.1947 20.1826 12.9941 20.1826ZM12.9941 8.17242C12.9184 8.17242 12.8427 8.17242 12.767 8.17824C9.76301 8.29468 7.31787 10.7398 7.20144 13.7438C7.1374 15.3331 7.71375 16.841 8.81988 17.9937C9.92601 19.1405 11.4106 19.7751 12.9999 19.7751C15.0608 19.7751 16.9179 18.7214 17.9716 16.9574C17.9949 16.9225 17.9949 16.8817 17.9891 16.8468C17.9775 16.806 17.9542 16.7769 17.9134 16.7595C17.8436 16.7245 17.7621 16.7478 17.7213 16.8119C16.72 18.4885 14.9502 19.4898 12.9941 19.4898C11.4862 19.4898 10.0774 18.8902 9.02364 17.7957C7.97573 16.7071 7.42849 15.2749 7.48671 13.7613C7.59732 10.9086 9.92019 8.58577 12.7728 8.47515C14.2283 8.41694 15.6197 8.92925 16.6967 9.9073C17.7621 10.8795 18.4024 12.2069 18.4898 13.639C18.4956 13.7147 18.5596 13.7787 18.6353 13.7787C18.6761 13.7787 18.711 13.7613 18.7401 13.7322C18.7692 13.7031 18.7809 13.6623 18.7809 13.6216C18.6877 12.1137 18.0182 10.7165 16.8946 9.69189C15.8176 8.70802 14.4378 8.17242 12.9941 8.17242Z" fill="white"/>
<path d="M5.30926 7.47385H2.32855C2.13643 7.47385 1.97925 7.31667 1.97925 7.12455V3.98663C1.97925 3.79452 2.13643 3.63733 2.32855 3.63733C2.52067 3.63733 2.67785 3.79452 2.67785 3.98663V6.42594C2.67785 6.61806 2.83504 6.77525 3.02716 6.77525H5.30926C5.50138 6.77525 5.65857 6.93243 5.65857 7.12455C5.65857 7.31667 5.50138 7.47385 5.30926 7.47385Z" fill="white"/>
<path d="M5.30942 7.6775H2.3287C2.02597 7.6775 1.77563 7.42717 1.77563 7.12444V3.98653C1.77563 3.68381 2.02597 3.43347 2.3287 3.43347C2.63143 3.43347 2.88176 3.68381 2.88176 3.98653V6.42583C2.88176 6.50734 2.9458 6.57138 3.02731 6.57138H5.30942C5.61215 6.57138 5.86248 6.82171 5.86248 7.12444C5.86248 7.42717 5.61215 7.6775 5.30942 7.6775ZM2.3287 3.84681C2.24719 3.84681 2.18316 3.91085 2.18316 3.99236V7.13026C2.18316 7.21176 2.24719 7.2758 2.3287 7.2758H5.30942C5.39092 7.2758 5.45496 7.21176 5.45496 7.13026C5.45496 7.04876 5.39092 6.98472 5.30942 6.98472H3.02731C2.72458 6.98472 2.47424 6.73438 2.47424 6.43165V3.99236C2.47424 3.91085 2.40438 3.84681 2.3287 3.84681Z" fill="white"/>
<path d="M23.269 24.3917C23.0769 24.3917 22.9197 24.2345 22.9197 24.0424V21.6031C22.9197 21.411 22.7625 21.2538 22.5704 21.2538H20.2883C20.0962 21.2538 19.939 21.0966 19.939 20.9045C19.939 20.7124 20.0962 20.5552 20.2883 20.5552H23.269C23.4611 20.5552 23.6183 20.7124 23.6183 20.9045V24.0424C23.6183 24.2345 23.4611 24.3917 23.269 24.3917Z" fill="white"/>
<path d="M23.2691 24.5955C22.9664 24.5955 22.7161 24.3451 22.7161 24.0424V21.6031C22.7161 21.5216 22.652 21.4576 22.5705 21.4576H20.2884C19.9857 21.4576 19.7354 21.2072 19.7354 20.9045C19.7354 20.6018 19.9857 20.3514 20.2884 20.3514H23.2691C23.5719 20.3514 23.8222 20.6018 23.8222 20.9045V24.0424C23.8222 24.3451 23.5719 24.5955 23.2691 24.5955ZM20.2884 20.759C20.2069 20.759 20.1429 20.823 20.1429 20.9045C20.1429 20.986 20.2069 21.05 20.2884 21.05H22.5705C22.8733 21.05 23.1236 21.3004 23.1236 21.6031V24.0424C23.1236 24.1239 23.1876 24.188 23.2691 24.188C23.3506 24.188 23.4147 24.1239 23.4147 24.0424V20.9045C23.4147 20.823 23.3506 20.759 23.2691 20.759H20.2884Z" fill="white"/>
</svg>
