<svg width="18" height="17" viewBox="0 0 18 17" fill="none" xmlns="http://www.w3.org/2000/svg">
<path d="M16.8906 15.4793L12.9793 11.568C13.9488 10.3859 14.5332 8.87187 14.5332 7.22168C14.5332 3.43652 11.4619 0.365234 7.67676 0.365234C3.88828 0.365234 0.820312 3.43652 0.820312 7.22168C0.820312 11.0068 3.88828 14.0781 7.67676 14.0781C9.32695 14.0781 10.8377 13.4971 12.0197 12.5275L15.9311 16.4355C16.1967 16.7012 16.625 16.7012 16.8906 16.4355C17.1562 16.1732 17.1562 15.7416 16.8906 15.4793ZM7.67676 12.7135C4.64531 12.7135 2.18164 10.2498 2.18164 7.22168C2.18164 4.19355 4.64531 1.72656 7.67676 1.72656C10.7049 1.72656 13.1719 4.19355 13.1719 7.22168C13.1719 10.2498 10.7049 12.7135 7.67676 12.7135Z" fill="#D1DBE5"/>
</svg>
