<svg width="19" height="18" viewBox="0 0 19 18" fill="none" xmlns="http://www.w3.org/2000/svg">
<path d="M9.38145 1.00661C7.96793 0.94931 6.56423 1.26528 5.3116 1.92274C4.05897 2.58021 3.00158 3.55597 2.24582 4.75186C1.49005 5.94775 1.06256 7.32159 1.00636 8.73516C0.950159 10.1487 1.26723 11.5522 1.92566 12.8043V13.0382L1.16547 16.4298C1.15316 16.4797 1.15419 16.5319 1.16848 16.5813C1.18276 16.6306 1.20979 16.6753 1.24684 16.7109C1.28389 16.7464 1.32966 16.7716 1.37953 16.7839C1.42941 16.7961 1.48163 16.7951 1.53095 16.7807L4.98107 15.9036H5.24422C6.52843 16.6141 7.97226 16.9864 9.43993 16.9854C10.5249 17.0512 11.6118 16.8943 12.6339 16.5244C13.6559 16.1545 14.5915 15.5794 15.383 14.8344C16.1745 14.0895 16.8052 13.1905 17.2363 12.1927C17.6674 11.1949 17.8898 10.1195 17.8898 9.03254C17.8898 7.94561 17.6674 6.87016 17.2363 5.87238C16.8052 4.8746 16.1745 3.97559 15.383 3.23064C14.5915 2.4857 13.6559 1.91057 12.6339 1.54067C11.6118 1.17076 10.5249 1.01389 9.43993 1.0797L9.38145 1.00661Z" stroke="white" stroke-width="0.7" stroke-miterlimit="10"/>
<path d="M5.90186 9.98293C6.30556 9.98293 6.63282 9.65567 6.63282 9.25197C6.63282 8.84827 6.30556 8.52101 5.90186 8.52101C5.49816 8.52101 5.1709 8.84827 5.1709 9.25197C5.1709 9.65567 5.49816 9.98293 5.90186 9.98293Z" fill="white"/>
<path d="M9.38098 9.98293C9.78468 9.98293 10.1119 9.65567 10.1119 9.25197C10.1119 8.84827 9.78468 8.52101 9.38098 8.52101C8.97729 8.52101 8.65002 8.84827 8.65002 9.25197C8.65002 9.65567 8.97729 9.98293 9.38098 9.98293Z" fill="white"/>
<path d="M12.9629 9.98293C13.3666 9.98293 13.6939 9.65567 13.6939 9.25197C13.6939 8.84827 13.3666 8.52101 12.9629 8.52101C12.5592 8.52101 12.2319 8.84827 12.2319 9.25197C12.2319 9.65567 12.5592 9.98293 12.9629 9.98293Z" fill="white"/>
</svg>
