<svg width="19" height="19" viewBox="0 0 19 19" fill="none" xmlns="http://www.w3.org/2000/svg">
<path d="M16.374 5.10833L11.3757 0.109992C11.3053 0.0395586 11.2098 0 11.1101 0H4.06704C3.21171 0 2.51587 0.695838 2.51587 1.55117V17.4488C2.51587 18.3042 3.21171 19 4.06704 19H14.9328C15.7881 19 16.484 18.3042 16.484 17.4488V5.37385C16.484 5.27428 16.4444 5.17872 16.374 5.10833ZM11.4857 1.28209L15.2019 4.99826H12.2858C11.8446 4.99826 11.4857 4.63934 11.4857 4.19811V1.28209H11.4857ZM15.733 17.4488C15.733 17.89 15.374 18.249 14.9328 18.249H4.06704C3.62585 18.249 3.26689 17.89 3.26689 17.4488V1.55117C3.26689 1.10998 3.62585 0.75102 4.06704 0.75102H10.7346V4.19818C10.7346 5.05352 11.4304 5.74936 12.2858 5.74936H15.733V17.4488Z" fill="white"/>
<path d="M12.5039 9.53757H6.49599C6.28863 9.53757 6.12048 9.70571 6.12048 9.91308C6.12048 10.1204 6.28863 10.2886 6.49599 10.2886H12.5039C12.7114 10.2886 12.8794 10.1204 12.8794 9.91308C12.8794 9.70571 12.7114 9.53757 12.5039 9.53757Z" fill="white"/>
<path d="M12.5039 11.2148H6.49599C6.28863 11.2148 6.12048 11.3829 6.12048 11.5903C6.12048 11.7976 6.28863 11.9658 6.49599 11.9658H12.5039C12.7114 11.9658 12.8794 11.7976 12.8794 11.5903C12.8794 11.3829 12.7114 11.2148 12.5039 11.2148Z" fill="white"/>
<path d="M12.5039 12.8919H6.49599C6.28863 12.8919 6.12048 13.06 6.12048 13.2674C6.12048 13.4748 6.28863 13.6429 6.49599 13.6429H12.5039C12.7114 13.6429 12.8794 13.4748 12.8794 13.2674C12.8794 13.06 12.7114 12.8919 12.5039 12.8919Z" fill="white"/>
<path d="M10.5513 14.5691H6.49599C6.28863 14.5691 6.12048 14.7373 6.12048 14.9446C6.12048 15.152 6.28863 15.3201 6.49599 15.3201H10.5513C10.7588 15.3201 10.9269 15.152 10.9269 14.9446C10.9269 14.7373 10.7588 14.5691 10.5513 14.5691Z" fill="white"/>
</svg>
