<svg width="19" height="19" viewBox="0 0 19 19" fill="none" xmlns="http://www.w3.org/2000/svg">
<path d="M18.9047 8.85095H17.9931V4.65756C17.9931 3.65223 17.1752 2.83437 16.1699 2.83437H14.9353L13.6718 0.562663C13.4792 0.215488 13.1127 0 12.7153 0C12.5301 0 12.3463 0.0477728 12.184 0.137815L7.33502 2.83431H1.91865C0.913326 2.83431 0.095459 3.65218 0.095459 4.6575V17.1767C0.095459 18.1821 0.913326 18.9999 1.91865 18.9999H16.1699C17.1752 18.9999 17.9931 18.1821 17.9931 17.1767V13.5001H18.9047V8.85095ZM16.1699 3.56361C16.7314 3.56361 17.1902 3.99022 17.2518 4.53609H15.8815L15.341 3.56361H16.1699ZM12.5388 0.775201C12.7098 0.679315 12.9399 0.746378 13.0343 0.916704L15.0471 4.53575H5.77582L12.5388 0.775201ZM17.2638 17.1767C17.2638 17.7799 16.773 18.2707 16.1699 18.2707H1.91865C1.31554 18.2707 0.824703 17.7799 0.824703 17.1767V4.65756C0.824703 4.05444 1.31554 3.56361 1.91865 3.56361H6.02376L4.27495 4.53614H2.14657C1.94492 4.53614 1.78192 4.69949 1.78192 4.90079C1.78192 5.1021 1.94492 5.26544 2.14657 5.26544H2.96336H16.287H17.2638V8.85129H14.5972C13.3589 8.85129 12.351 9.85917 12.351 11.0975V11.2543C12.351 12.4926 13.3589 13.5005 14.5972 13.5005H17.2638V17.1767ZM18.1754 12.7708H17.9931H14.5972C13.7607 12.7708 13.0803 12.0904 13.0803 11.2539V11.0971C13.0803 10.2606 13.7607 9.58014 14.5972 9.58014H17.9931H18.1754V12.7708ZM15.7141 11.2054C15.7141 11.6503 15.3538 12.0105 14.909 12.0105C14.4641 12.0105 14.1039 11.6503 14.1039 11.2054C14.1039 10.7606 14.4642 10.4003 14.909 10.4003C15.3539 10.4003 15.7141 10.7609 15.7141 11.2054Z" fill="white"/>
</svg>
