<svg width="16" height="17" viewBox="0 0 16 17" fill="none" xmlns="http://www.w3.org/2000/svg">
<path d="M14.5147 17H1.49843C1.28041 16.9988 1.06518 16.9514 0.867116 16.8609C0.669052 16.7705 0.492724 16.6391 0.349928 16.4756C0.210708 16.3081 0.109269 16.1128 0.0524761 15.9031C-0.00431662 15.6934 -0.0151614 15.474 0.0206746 15.2597L0.150848 14.4998C0.251573 13.9227 0.478601 13.3745 0.815944 12.8939C1.15329 12.4134 1.59272 12.0121 2.10328 11.7184L5.4569 9.7957C5.48434 9.78002 5.50836 9.75905 5.52751 9.73401C5.54666 9.70898 5.56055 9.6804 5.5684 9.64994C5.57625 9.61949 5.57788 9.58778 5.57319 9.55669C5.56851 9.5256 5.55762 9.49577 5.54113 9.46893C5.34972 9.16495 5.18125 8.90656 5.02046 8.67097C4.58367 8.09037 4.24968 7.44019 4.03277 6.74831C3.4815 4.81805 3.65759 2.59902 4.43091 1.58069L4.47685 1.51989C4.8214 1.06392 5.61769 0 7.99891 0C10.3801 0 11.2223 1.13232 11.5516 1.55789C12.3172 2.59902 12.5163 4.81805 11.965 6.74831C11.7481 7.44019 11.4141 8.09037 10.9773 8.67097C10.8165 8.91416 10.6405 9.17254 10.449 9.47652C10.4194 9.5296 10.4107 9.59181 10.4249 9.65087C10.4391 9.70993 10.475 9.76159 10.5256 9.7957L13.8945 11.7184C14.4052 12.0101 14.8449 12.4098 15.1823 12.8892C15.5198 13.3686 15.7467 13.9159 15.847 14.4922L15.9771 15.2521C16.0153 15.4659 16.0056 15.6854 15.9489 15.8951C15.8921 16.1048 15.7896 16.2995 15.6486 16.4655C15.5076 16.6315 15.3317 16.7648 15.1331 16.8558C14.9345 16.9469 14.7181 16.9935 14.4994 16.9924L14.5147 17ZM8.01422 0.759946C6.02349 0.759946 5.40331 1.58069 5.1047 1.97586L5.05876 2.04426C4.43092 2.8574 4.29308 4.87125 4.78311 6.54314C4.98144 7.15809 5.28161 7.73596 5.67128 8.25301C5.83207 8.4886 6.21491 9.10415 6.43695 9.52972C6.47226 9.58502 6.49577 9.64693 6.50602 9.71161C6.51626 9.77629 6.51301 9.84238 6.49651 9.90577C6.48 9.96916 6.45059 10.0285 6.41005 10.0802C6.36952 10.1318 6.31874 10.1747 6.26086 10.2061L2.49378 12.3795C2.07647 12.6199 1.71794 12.949 1.44391 13.3432C1.16989 13.7373 0.987165 14.1868 0.908849 14.6594L0.778699 15.4193C0.762493 15.5238 0.76842 15.6304 0.796106 15.7325C0.823792 15.8346 0.872621 15.9298 0.939482 16.0121C1.01038 16.0922 1.09747 16.1566 1.19508 16.2011C1.2927 16.2456 1.39865 16.2692 1.50607 16.2704H14.5224C14.6298 16.2692 14.7358 16.2456 14.8334 16.2011C14.931 16.1566 15.0181 16.0922 15.089 16.0121C15.1558 15.9298 15.2047 15.8346 15.2323 15.7325C15.26 15.6304 15.266 15.5238 15.2498 15.4193L15.1196 14.6594C15.0413 14.1868 14.8585 13.7373 14.5845 13.3432C14.3105 12.949 13.952 12.6199 13.5347 12.3795L9.95901 10.3277C9.79386 10.224 9.67491 10.0616 9.62651 9.87365C9.57811 9.68574 9.60394 9.48656 9.69869 9.31693C9.93604 8.92176 10.227 8.4506 10.3648 8.25301C10.7545 7.73596 11.0547 7.15809 11.253 6.54314C11.7277 4.87125 11.6052 2.8574 10.9773 2.04426C10.6634 1.64149 9.98963 0.759946 8.01422 0.759946Z" fill="white"/>
</svg>
