<svg width="100" height="93" viewBox="0 0 100 93" fill="none" xmlns="http://www.w3.org/2000/svg">
<path d="M39.6057 52.1939C40.6182 51.1426 41.9278 50.3662 43.4261 50.0071L48.8414 48.7094L48.8438 48.713L48.8414 48.7094V45.4033H55.4545V48.72L60.8558 50.0103C64.3876 50.854 66.8794 54.011 66.8794 57.6423V61.6031H54.9067L39.6057 52.1939Z" fill="#B6916A"/>
<path d="M29.3944 52.183C28.382 51.1317 27.0724 50.3553 25.574 49.9963L20.1587 48.6985L20.1564 48.7021L20.1587 48.6985V45.3924H13.5456V48.7091L8.14432 49.9994C4.61253 50.8431 2.12079 54.0001 2.12079 57.6314V61.5922H14.0934L29.3944 52.183Z" fill="#B6916A"/>
<path d="M29.8872 52.0644L22.3443 53.872C17.4284 55.0501 13.962 59.4455 13.962 64.5004V72.1266H55.0112V64.5068C55.0112 59.4488 51.5407 55.0518 46.6212 53.8766L39.0981 52.0794" fill="#E04E39"/>
<path d="M39.0977 47.4594V52.0789L34.4947 62.5475L29.887 52.0643V47.4594" fill="#FFB487"/>
<path d="M44.7801 31.5943V37.9726C44.7801 43.6428 40.1835 48.2395 34.5133 48.2395C28.843 48.2395 24.2464 43.6428 24.2464 37.9726V31.5943" fill="#FFCDAC"/>
<path d="M34.5133 20.8735C28.843 20.8735 24.2464 25.4701 24.2464 31.1403V33.6119H29.2661C32.603 33.6119 35.7688 32.1346 37.9119 29.5769L44.7801 33.6119V31.1403C44.7801 25.4701 40.1837 20.8735 34.5133 20.8735Z" fill="#BEBEBE"/>
<path d="M24.2276 35.4506V33.6761C24.2276 29.6052 20.9274 26.3051 16.8565 26.3051C12.7856 26.3051 9.48541 29.6052 9.48541 33.6761V35.4506H14.5665C17.7483 35.4506 20.8706 34.5868 23.5998 32.9513" fill="#F5B955"/>
<path d="M24.2276 34.0021V38.5813C24.2276 42.6522 20.9274 45.9524 16.8565 45.9524C12.7856 45.9524 9.48541 42.6522 9.48541 38.5813V34.0021" fill="#FFCDAC"/>
<path d="M44.7725 35.4614V33.687C44.7725 29.6161 48.0727 26.3159 52.1436 26.3159C56.2145 26.3159 59.5147 29.6161 59.5147 33.687V35.4614H54.4337C51.2518 35.4614 48.1296 34.5976 45.4003 32.9621" fill="#F5B955"/>
<path d="M44.7725 34.013V38.5923C44.7725 42.6632 48.0727 45.9634 52.1436 45.9634C56.2145 45.9634 59.5147 42.6632 59.5147 38.5923V34.013" fill="#FFCDAC"/>
</svg>
