<svg width="101" height="93" viewBox="0 0 101 93" fill="none" xmlns="http://www.w3.org/2000/svg">
<path d="M30.6666 41.1993L52.6666 45.1993V71.1993H30.6666V41.1993Z" fill="#E04E39"/>
<path d="M1.66663 21.1993L29.6666 25.1993V71.1993H1.66663V21.1993Z" fill="#B6916A"/>
<path d="M31.3981 39.8318L51.0387 43.739C52.6066 44.0703 53.6666 45.3953 53.6666 46.9632V69.4882C53.6666 71.3211 52.1871 72.8007 50.3541 72.8007H30.4791C31.0975 72.8007 31.3981 72.3149 31.3981 71.6965V71H50.3981C50.9944 71 51.4583 70.1065 51.4583 69.4882V46.9632C51.4583 46.4553 51.105 45.9915 50.5971 45.8811L31.3981 42V39.8318Z" fill="#ECF1F6"/>
<path d="M43.7291 50.7174C44.3474 50.7174 44.8332 51.2032 44.8332 51.8216C44.8332 52.4399 44.3474 52.9257 43.7291 52.9257H39.3124C38.6941 52.9257 38.2082 52.4399 38.2082 51.8216C38.2082 51.2032 38.6941 50.7174 39.3124 50.7174H43.7291Z" fill="#ECF1F6"/>
<path d="M43.7291 57.3424C44.3474 57.3424 44.8332 57.8282 44.8332 58.4465C44.8332 59.0649 44.3474 59.5507 43.7291 59.5507H39.3124C38.6941 59.5507 38.2082 59.0649 38.2082 58.4465C38.2082 57.8282 38.6941 57.3424 39.3124 57.3424H43.7291Z" fill="#ECF1F6"/>
<path d="M43.7291 63.9674C44.3474 63.9674 44.8332 64.4532 44.8332 65.0715C44.8332 65.6899 44.3474 66.1757 43.7291 66.1757H39.3124C38.6941 66.1757 38.2082 65.6899 38.2082 65.0715C38.2082 64.4532 38.6941 63.9674 39.3124 63.9674H43.7291Z" fill="#ECF1F6"/>
<path d="M31.3981 71.6965C31.3981 72.3149 31.0975 72.8007 30.4791 72.8007C29.8608 72.8007 29.3749 72.3149 29.3749 71.6965V71V40.7799C29.3749 40.4486 29.5295 40.1394 29.7724 39.9186C30.0374 39.7199 30.3687 39.6315 30.6999 39.6978L31.3981 39.8318V42V56.5V63.737V71V71.6965Z" fill="#ECF1F6"/>
<path d="M29.3749 71V71.6965C29.3749 72.3149 29.8608 72.8007 30.4791 72.8007L21.6458 72.8007C22.2641 72.8007 22.75 72.3149 22.75 71.6965V71H29.3749Z" fill="#ECF1F6"/>
<path d="M23.8541 30.8424C24.4724 30.8424 24.9583 31.3282 24.9583 31.9465C24.9583 32.5648 24.4724 33.0507 23.8541 33.0507H19.4374C18.8191 33.0507 18.3333 32.5648 18.3333 31.9465C18.3333 31.3282 18.8191 30.8424 19.4374 30.8424H23.8541Z" fill="#ECF1F6"/>
<path d="M24.9583 38.5715C24.9583 39.1898 24.4724 39.6757 23.8541 39.6757H19.4374C18.8191 39.6757 18.3333 39.1898 18.3333 38.5715C18.3333 37.9532 18.8191 37.4673 19.4374 37.4673H23.8541C24.4724 37.4673 24.9583 37.9532 24.9583 38.5715Z" fill="#ECF1F6"/>
<path d="M23.8541 44.0923C24.4724 44.0923 24.9583 44.5781 24.9583 45.1965C24.9583 45.8148 24.4724 46.3006 23.8541 46.3006H19.4374C18.8191 46.3006 18.3333 45.8148 18.3333 45.1965C18.3333 44.5781 18.8191 44.0923 19.4374 44.0923H23.8541Z" fill="#ECF1F6"/>
<path d="M23.8541 50.7174C24.4724 50.7174 24.9583 51.2032 24.9583 51.8216C24.9583 52.4399 24.4724 52.9257 23.8541 52.9257H19.4374C18.8191 52.9257 18.3333 52.4399 18.3333 51.8216C18.3333 51.2032 18.8191 50.7174 19.4374 50.7174H23.8541Z" fill="#ECF1F6"/>
<path d="M13.9166 51.8216C13.9166 52.4399 13.4308 52.9257 12.8124 52.9257H8.39577C7.77744 52.9257 7.29161 52.4399 7.29161 51.8216C7.29161 51.2032 7.77744 50.7174 8.39577 50.7174H12.8124C13.4308 50.7174 13.9166 51.2032 13.9166 51.8216Z" fill="#ECF1F6"/>
<path d="M12.8124 30.8424C13.4308 30.8424 13.9166 31.3282 13.9166 31.9465C13.9166 32.5648 13.4308 33.0507 12.8124 33.0507H8.39577C7.77744 33.0507 7.29161 32.5648 7.29161 31.9465C7.29161 31.3282 7.77744 30.8424 8.39577 30.8424H12.8124Z" fill="#ECF1F6"/>
<path d="M12.8124 37.4673C13.4308 37.4673 13.9166 37.9532 13.9166 38.5715C13.9166 39.1898 13.4308 39.6757 12.8124 39.6757H8.39577C7.77744 39.6757 7.29161 39.1898 7.29161 38.5715C7.29161 37.9532 7.77744 37.4673 8.39577 37.4673H12.8124Z" fill="#ECF1F6"/>
<path d="M12.8124 44.0923C13.4308 44.0923 13.9166 44.5781 13.9166 45.1965C13.9166 45.8148 13.4308 46.3006 12.8124 46.3006H8.39577C7.77744 46.3006 7.29161 45.8148 7.29161 45.1965C7.29161 44.5781 7.77744 44.0923 8.39577 44.0923H12.8124Z" fill="#ECF1F6"/>
<path d="M20.5416 60.6549C20.5416 60.0365 20.0337 59.5507 19.4374 59.5507H12.8124C12.1941 59.5507 11.7083 60.0365 11.7083 60.6549V71H9.39813L9.49992 60.6549C9.49992 58.822 10.9795 57.3424 12.8124 57.3424H19.4374C21.2703 57.3424 22.7499 58.822 22.7499 60.6549L22.75 71H20.5416V60.6549Z" fill="#ECF1F6"/>
<path d="M11.7083 71H20.5416H22.75V71.6965C22.75 72.3149 22.2641 72.8007 21.6458 72.8007H10.6041C9.98575 72.8007 9.49992 72.3149 9.49992 71.6965L9.39813 71H11.7083Z" fill="#ECF1F6"/>
<path d="M4.53121 20.2423L28.8008 23.9303C30.4129 24.1953 31.3981 25.5644 31.3981 27.1986V39.8318L30.6999 39.6978C30.3687 39.6315 30.0374 39.7199 29.7724 39.9186C29.5295 40.1394 29.3749 40.4486 29.3749 40.7799L29.375 27.1986C29.375 26.6465 28.9281 25.5883 28.3981 25.5L4.39813 22C4.33188 21.9779 3.96438 22 3.89813 22C3.63313 22 3.09688 22.3233 2.89813 22.5C2.63313 22.7208 2.39813 23.1794 2.39813 23.5107V69.4882C2.39813 70.1065 3.38288 71 3.97913 71H9.39813L9.49992 71.6965C9.49992 72.3149 9.98575 72.8007 10.6041 72.8007L3.97913 72.8007C2.14621 72.8007 0.666626 71.3211 0.666626 69.4882V23.5107C0.666626 22.539 1.08621 21.6115 1.83704 20.9932C2.58788 20.3528 3.55954 20.0878 4.53121 20.2423Z" fill="#ECF1F6"/>
</svg>
